<?xml version="1.0" encoding="UTF-8"?>
<svg version="1.1" xmlns="http://www.w3.org/2000/svg" width="192" height="256">
<path d="M0 0 C1.22799316 0.00201416 2.45598633 0.00402832 3.72119141 0.00610352 C15.19278781 0.1289872 26.47175276 1.2499387 37.80908203 2.96606445 C39.77589011 3.25254574 41.75486793 3.45404644 43.734375 3.6328125 C46.1875 4.3125 46.1875 4.3125 47.6484375 6.30859375 C47.95007813 7.11425781 48.25171875 7.91992188 48.5625 8.75 C48.87960938 9.55308594 49.19671875 10.35617188 49.5234375 11.18359375 C50.1875 13.3125 50.1875 13.3125 50.1875 15.3125 C50.75597656 14.86777344 51.32445312 14.42304687 51.91015625 13.96484375 C58.19006692 9.36237165 58.19006692 9.36237165 62.9375 9.125 C67.0096845 10.61291357 68.74874195 11.69131381 71.1875 15.3125 C72.60094365 23.809115 69.76078247 32.38863852 67.6875 40.5625 C67.18312164 42.5722761 66.68230368 44.58273258 66.1895752 46.59539795 C65.74441368 48.41095752 65.28759851 50.22364821 64.83007812 52.03613281 C63.65653624 57.75259804 63.65653624 57.75259804 65.24609375 63.140625 C65.70113281 63.60984375 66.15617188 64.0790625 66.625 64.5625 C70.64045471 68.87176847 70.53238418 71.75094323 70.46484375 77.484375 C69.92093009 83.03076222 67.59666875 86.09122042 63.375 89.75 C59.70545675 91.54879571 57.22364402 91.63539152 53.1875 91.3125 C53.9506861 92.92031893 54.72337058 94.52363138 55.5 96.125 C55.92925781 97.01832031 56.35851562 97.91164063 56.80078125 98.83203125 C58.51240268 101.89366395 60.04987401 103.74368701 63.1875 105.3125 C65.38234216 106.40992108 66.69071995 107.36668594 68.1875 109.3125 C68.1875 110.6325 68.1875 111.9525 68.1875 113.3125 C70.25847697 115.35581967 70.25847697 115.35581967 73.1875 116.3125 C76.12494278 115.62133699 78.50169929 114.65540035 81.1875 113.3125 C90.89150773 112.3729056 90.89150773 112.3729056 94.6875 115.125 C95.1825 115.846875 95.6775 116.56875 96.1875 117.3125 C98.77822324 120.25650369 101.64539478 121.65951756 105.1875 123.3125 C104.69811677 130.7755943 103.68052866 139.16109944 98.6953125 145.0859375 C94.65719822 148.5615284 90.98374351 149.66023604 85.703125 149.6015625 C77.17605589 148.621744 67.22610208 145.59570368 61.1875 139.3125 C58.97337867 137.7160165 56.75649368 136.15807604 54.5 134.625 C51.3753125 132.4903125 51.3753125 132.4903125 48.1875 130.3125 C47.5275 135.5925 46.8675 140.8725 46.1875 146.3125 C44.8675 146.3125 43.5475 146.3125 42.1875 146.3125 C41.90147348 149.14722711 41.65317649 151.97827835 41.44921875 154.8203125 C41.27905393 157.09086995 41.05523505 159.35825843 40.76953125 161.6171875 C40.33699467 166.84523839 40.22129971 170.00449155 43.41796875 174.33203125 C46.1273369 177.19737989 46.1273369 177.19737989 49 179.6796875 C51.1875 182.3125 51.1875 182.3125 51.1875 189.3125 C39.3075 189.3125 27.4275 189.3125 15.1875 189.3125 C15.1875 177.4325 15.1875 165.5525 15.1875 153.3125 C13.8675 153.3125 12.5475 153.3125 11.1875 153.3125 C11.1875 165.1925 11.1875 177.0725 11.1875 189.3125 C-0.6925 189.3125 -12.5725 189.3125 -24.8125 189.3125 C-24.8125 182.3125 -24.8125 182.3125 -23.38671875 180.23828125 C-22.76410156 179.70589844 -22.14148437 179.17351562 -21.5 178.625 C-16.50794619 174.39003289 -16.50794619 174.39003289 -14.4140625 168.39453125 C-14.45858685 162.18338506 -14.79821575 156.90310486 -17.15625 151.1171875 C-17.8125 149.3125 -17.8125 149.3125 -17.8125 146.3125 C-18.4725 146.3125 -19.1325 146.3125 -19.8125 146.3125 C-21.14583333 140.97916667 -22.47916667 135.64583333 -23.8125 130.3125 C-24.4725 130.3125 -25.1325 130.3125 -25.8125 130.3125 C-26.8025 129.3225 -26.8025 129.3225 -27.8125 128.3125 C-28.73482422 128.745625 -28.73482422 128.745625 -29.67578125 129.1875 C-30.48402344 129.55875 -31.29226562 129.93 -32.125 130.3125 C-32.92550781 130.68375 -33.72601563 131.055 -34.55078125 131.4375 C-36.8125 132.3125 -36.8125 132.3125 -39.8125 132.3125 C-40.1425 133.3025 -40.4725 134.2925 -40.8125 135.3125 C-49.73492839 140.01199863 -59.81252198 142.04074412 -69.8125 140.3125 C-73.67703742 137.91605501 -75.46824378 135.74744628 -77 131.5 C-77.47566406 130.18515625 -77.47566406 130.18515625 -77.9609375 128.84375 C-78.24195312 128.0084375 -78.52296875 127.173125 -78.8125 126.3125 C-79.05226563 125.6421875 -79.29203125 124.971875 -79.5390625 124.28125 C-80.73551441 120.64403618 -81.51915609 117.8206264 -79.8125 114.3125 C-77.83343786 113.14325103 -75.86112029 112.24453376 -73.72265625 111.40234375 C-71.34264732 110.04442455 -71.00992497 108.7214373 -69.8125 106.3125 C-65.98709764 103.66098721 -62.69544189 104.29151787 -58.26953125 104.81640625 C-55.8125 105.3125 -55.8125 105.3125 -52.625 106.9375 C-48.95067 108.73383911 -46.73180471 108.21695493 -42.8125 107.3125 C-40.6560566 106.50214132 -40.6560566 106.50214132 -40 104.4375 C-38.4153455 101.60180248 -36.71802193 100.69608187 -33.8125 99.3125 C-32.4925 99.3125 -31.1725 99.3125 -29.8125 99.3125 C-26.15728215 96.48176738 -24.72381716 93.3080883 -23.0625 89.0625 C-22.63453125 87.98484375 -22.2065625 86.9071875 -21.765625 85.796875 C-21.45109375 84.97703125 -21.1365625 84.1571875 -20.8125 83.3125 C-21.73675781 83.19261719 -22.66101562 83.07273437 -23.61328125 82.94921875 C-28.85424045 81.90614628 -31.737004 78.88989413 -34.6875 74.5625 C-36.54918746 69.18429179 -36.54918471 64.52255412 -34.75 59.125 C-32.28689182 55.54952038 -29.40841645 52.75599022 -25.8125 50.3125 C-25.1525 50.3125 -24.4925 50.3125 -23.8125 50.3125 C-23.83868408 49.03608643 -23.86486816 47.75967285 -23.8918457 46.44458008 C-23.98245416 41.7017576 -24.03978827 36.95901138 -24.0871582 32.21557617 C-24.11227806 30.16401294 -24.14638036 28.11253899 -24.18969727 26.0612793 C-24.25046002 23.10963909 -24.27873492 20.1591835 -24.30078125 17.20703125 C-24.32658768 16.29226517 -24.3523941 15.37749908 -24.37898254 14.43501282 C-24.38090508 10.05436358 -24.27631127 7.95660352 -21.65698242 4.3190918 C-14.85820368 -0.47699116 -8.01074646 -0.03534953 0 0 Z " fill="#B97657" transform="translate(82.8125,66.6875)"/>
<path d="M0 0 C1.22799316 0.00201416 2.45598633 0.00402832 3.72119141 0.00610352 C15.19278781 0.1289872 26.47175276 1.2499387 37.80908203 2.96606445 C39.77589011 3.25254574 41.75486793 3.45404644 43.734375 3.6328125 C46.1875 4.3125 46.1875 4.3125 47.6484375 6.30859375 C47.95007813 7.11425781 48.25171875 7.91992188 48.5625 8.75 C48.87960938 9.55308594 49.19671875 10.35617188 49.5234375 11.18359375 C50.1875 13.3125 50.1875 13.3125 50.1875 15.3125 C50.75597656 14.86777344 51.32445312 14.42304687 51.91015625 13.96484375 C58.19006692 9.36237165 58.19006692 9.36237165 62.9375 9.125 C67.0096845 10.61291357 68.74874195 11.69131381 71.1875 15.3125 C72.65357175 23.55835334 69.89342624 32.13083754 67.93432617 40.09887695 C67.3759419 42.37116703 66.83405823 44.64690256 66.29492188 46.92382812 C64.56042028 54.1737931 62.61609791 61.26008505 60.1875 68.3125 C59.63670743 70.92187982 59.21403993 73.51333173 58.8125 76.1484375 C58.08258344 78.67577358 57.25593821 79.71439126 55.1875 81.3125 C52.625 81.6875 52.625 81.6875 50.1875 81.3125 C46.89601598 76.37527397 48.62085181 71.18243039 49.73046875 65.5625 C50.34604205 62.80222225 51.00617906 60.05725006 51.6875 57.3125 C51.91308594 56.37277344 52.13867188 55.43304688 52.37109375 54.46484375 C54.03720238 47.61309524 54.03720238 47.61309524 55.1875 45.3125 C54.62224609 45.45324951 54.05699219 45.59399902 53.47460938 45.73901367 C46.17973189 47.39289826 39.14954359 47.66012868 31.6875 47.625 C30.45443115 47.62008545 29.2213623 47.6151709 27.95092773 47.61010742 C12.77239331 47.41669344 0.27405865 44.97962987 -13.8125 39.3125 C-13.80202637 40.2411084 -13.79155273 41.1697168 -13.78076172 42.12646484 C-13.74670796 45.5667569 -13.72161507 49.00687027 -13.70263672 52.44726562 C-13.69256957 53.9372032 -13.67891482 55.42712097 -13.66162109 56.91699219 C-13.63740347 59.05669028 -13.62602436 61.19612753 -13.6171875 63.3359375 C-13.60671387 64.62419434 -13.59624023 65.91245117 -13.58544922 67.23974609 C-13.8125 70.3125 -13.8125 70.3125 -15.8125 72.3125 C-18.8125 72.625 -18.8125 72.625 -21.8125 72.3125 C-24.12540208 68.84314687 -24.07852056 67.45703505 -24.11889648 63.35986328 C-24.13488388 62.13494171 -24.15087128 60.91002014 -24.16734314 59.64797974 C-24.17371993 58.30959489 -24.17911265 56.97120504 -24.18359375 55.6328125 C-24.19256191 54.25902203 -24.20168379 52.88523256 -24.21095276 51.51144409 C-24.22744025 48.63146594 -24.23514233 45.751604 -24.23803711 42.87158203 C-24.24341954 39.18695541 -24.28109223 35.50342589 -24.32678127 31.81910896 C-24.35657336 28.98115077 -24.36376111 26.14345603 -24.36476326 23.30535507 C-24.36896176 21.94738619 -24.38138158 20.58941626 -24.40228081 19.23160172 C-24.55531022 8.42902427 -24.55531022 8.42902427 -21.65258789 4.06591797 C-14.62259237 -0.27427182 -8.02846195 -0.0354277 0 0 Z " fill="#3C3E41" transform="translate(82.8125,66.6875)"/>
<path d="M0 0 C5.02979202 0.506761 8.21437102 2.07988713 12.4375 4.8125 C13.58324653 5.53529387 14.72907905 6.25795144 15.875 6.98046875 C17.65725691 8.13225228 19.43302201 9.29460962 21.1875 10.48828125 C23.95751182 12.28755232 25.48845097 13.06820654 28.8125 12.625 C31.9006061 11.15842824 31.9006061 11.15842824 34.0703125 9.48046875 C41.76092312 4.06150714 48.02370275 4.6834764 57 6 C54.36227017 8.99868233 51.23842412 10.74183815 47.8125 12.75 C46.64596817 13.46997268 45.48190052 14.193953 44.3203125 14.921875 C42.35550069 16.15161604 40.37602626 17.3592015 38.3671875 18.515625 C35.88626932 20.20513917 34.50528684 21.3878846 33 24 C31.82290992 32.40014281 33.06670743 40.60036685 34 49 C40.93 49.66 47.86 50.32 55 51 C55.84459076 55.22295378 55.82097225 57.48163581 55.296875 61.57421875 C55.19890625 62.37472656 55.1009375 63.17523438 55 64 C54.86078125 64.99644531 54.7215625 65.99289063 54.578125 67.01953125 C54.15119357 72.31222532 54.00339862 75.64385417 57.23046875 80.03515625 C59.94246542 82.88492048 59.94246542 82.88492048 62.8125 85.3671875 C65 88 65 88 65 95 C53.12 95 41.24 95 29 95 C29 83.12 29 71.24 29 59 C27.68 59 26.36 59 25 59 C25 70.88 25 82.76 25 95 C13.12 95 1.24 95 -11 95 C-11 88 -11 88 -9.57421875 85.92578125 C-8.95160156 85.39339844 -8.32898437 84.86101562 -7.6875 84.3125 C-2.69544619 80.07753289 -2.69544619 80.07753289 -0.6015625 74.08203125 C-0.64608685 67.87088506 -0.98571575 62.59060486 -3.34375 56.8046875 C-4 55 -4 55 -4 52 C-1.63980407 50.81990204 0.16095717 50.70232315 2.7890625 50.46484375 C4.20058594 50.33432617 4.20058594 50.33432617 5.640625 50.20117188 C7.11789063 50.0706543 7.11789063 50.0706543 8.625 49.9375 C9.61757812 49.84662109 10.61015625 49.75574219 11.6328125 49.66210938 C14.08823868 49.43781564 16.54394389 49.21726893 19 49 C19.34741873 46.33445973 19.68094426 43.66898047 20 41 C20.08572266 40.30938477 20.17144531 39.61876953 20.25976562 38.90722656 C21.29986487 29.48465004 21.29986487 29.48465004 17.96875 20.921875 C11.82372887 15.16533221 4.42249532 10.91203069 -3 7 C-1.125 2.25 -1.125 2.25 0 0 Z " fill="#6668BF" transform="translate(69,161)"/>
<path d="M0 0 C2.30859375 0.21875 2.30859375 0.21875 5 1 C6.66015625 3.03125 6.66015625 3.03125 8.0625 5.5 C9.84577265 8.91470351 9.84577265 8.91470351 13.04296875 10.66796875 C13.68878906 10.77753906 14.33460938 10.88710937 15 11 C17.25 12.8125 17.25 12.8125 19 15 C19 16.32 19 17.64 19 19 C21.07097697 21.04331967 21.07097697 21.04331967 24 22 C26.93744278 21.30883699 29.31419929 20.34290035 32 19 C41.70400773 18.0604056 41.70400773 18.0604056 45.5 20.8125 C45.995 21.534375 46.49 22.25625 47 23 C49.59072324 25.94400369 52.45789478 27.34701756 56 29 C55.51061677 36.4630943 54.49302866 44.84859944 49.5078125 50.7734375 C45.46969822 54.2490284 41.79624351 55.34773604 36.515625 55.2890625 C27.98855589 54.309244 18.03860208 51.28320368 12 45 C9.78587867 43.4035165 7.56899368 41.84557604 5.3125 40.3125 C3.229375 38.889375 1.14625 37.46625 -1 36 C-1.66 41.28 -2.32 46.56 -3 52 C-26.18181818 50.40909091 -26.18181818 50.40909091 -29 49 C-31.53523582 40.97175324 -32.48094486 32.30690912 -31 24 C-26.33481727 16.63612412 -17.34016961 12.6351083 -9.80859375 8.62890625 C-6.91961818 7.29702775 -6.91961818 7.29702775 -6 5 C-3.5 3.5 -3.5 3.5 -1 2 C-0.67 1.34 -0.34 0.68 0 0 Z " fill="#E49B5D" transform="translate(132,161)"/>
<path d="M0 0 C0 0.99 0 1.98 0 3 C2.31 3 4.62 3 7 3 C5.125 7.75 5.125 7.75 4 10 C4.73863281 10.27714844 5.47726563 10.55429688 6.23828125 10.83984375 C10.58623384 12.66635283 14.18757202 15.25122747 18 18 C18.92554687 18.59296875 19.85109375 19.1859375 20.8046875 19.796875 C27.43288596 24.64128068 27.43288596 24.64128068 28.46630859 28.93945312 C29.33246474 36.89283658 28.10103722 44.34499144 26 52 C17.69433011 54.01290353 9.50825713 54.56891497 1 55 C-0.33333333 49.66666667 -1.66666667 44.33333333 -3 39 C-3.66 39 -4.32 39 -5 39 C-5.66 38.34 -6.32 37.68 -7 37 C-7.61488281 37.28875 -8.22976562 37.5775 -8.86328125 37.875 C-9.67152344 38.24625 -10.47976562 38.6175 -11.3125 39 C-12.11300781 39.37125 -12.91351563 39.7425 -13.73828125 40.125 C-16 41 -16 41 -19 41 C-19.33 41.99 -19.66 42.98 -20 44 C-28.92242839 48.69949863 -39.00002198 50.72824412 -49 49 C-52.86453742 46.60355501 -54.65574378 44.43494628 -56.1875 40.1875 C-56.50460938 39.3109375 -56.82171875 38.434375 -57.1484375 37.53125 C-57.42945313 36.6959375 -57.71046875 35.860625 -58 35 C-58.35964844 33.99453125 -58.35964844 33.99453125 -58.7265625 32.96875 C-59.92301441 29.33153618 -60.70665609 26.5081264 -59 23 C-57.02093786 21.83075103 -55.04862029 20.93203376 -52.91015625 20.08984375 C-50.53014732 18.73192455 -50.19742497 17.4089373 -49 15 C-45.17459764 12.34848721 -41.88294189 12.97901787 -37.45703125 13.50390625 C-35 14 -35 14 -31.8125 15.625 C-28.13817 17.42133911 -25.91930471 16.90445493 -22 16 C-19.8435566 15.18964132 -19.8435566 15.18964132 -19.1875 13.125 C-17.6028455 10.28930248 -15.90552193 9.38358187 -13 8 C-11.68 8 -10.36 8 -9 8 C-6.26533528 5.73413495 -5.1328469 4.3985407 -4 1 C-2 0 -2 0 0 0 Z " fill="#E69C5D" transform="translate(62,158)"/>
<path d="M0 0 C0.65355469 0.57621094 0.65355469 0.57621094 1.3203125 1.1640625 C3.16760739 2.6594917 4.87610389 3.92741118 7 5 C10.30675012 4.53761191 10.30675012 4.53761191 13 3 C16.92972653 1.03513673 21.71537523 1.52958126 26 2 C28.5 3.8125 28.5 3.8125 30 6 C32.59072324 8.94400369 35.45789478 10.34701756 39 12 C38.51061677 19.4630943 37.49302866 27.84859944 32.5078125 33.7734375 C28.46969822 37.2490284 24.79624351 38.34773604 19.515625 38.2890625 C10.98855589 37.309244 1.03860208 34.28320368 -5 28 C-7.21308501 26.40426373 -9.43175032 24.84484567 -11.6875 23.3125 C-12.29400391 22.89677734 -12.90050781 22.48105469 -13.52539062 22.05273438 C-15.01497948 21.03230736 -16.50722877 20.01576587 -18 19 C-12.44964797 12.21623641 -6.23557973 6.14477032 0 0 Z " fill="#B27254" transform="translate(149,178)"/>
<path d="M0 0 C1.051875 0.53625 2.10375 1.0725 3.1875 1.625 C6.89750676 3.43878108 9.04086383 2.95312538 13 2 C14.34638828 1.36010875 15.68315673 0.69867448 17 0 C23.73828125 11.23046875 23.73828125 11.23046875 24.90478516 13.19287109 C25.85010424 14.75266866 26.84816196 16.28027816 27.85546875 17.80078125 C28.23316406 18.52652344 28.61085937 19.25226563 29 20 C28 23 28 23 26.0390625 24.16796875 C25.24242187 24.50441406 24.44578125 24.84085938 23.625 25.1875 C22.83351562 25.53167969 22.04203125 25.87585938 21.2265625 26.23046875 C19 27 19 27 16 27 C15.505 28.485 15.505 28.485 15 30 C6.07757161 34.69949863 -4.00002198 36.72824412 -14 35 C-17.86453742 32.60355501 -19.65574378 30.43494628 -21.1875 26.1875 C-21.50460938 25.3109375 -21.82171875 24.434375 -22.1484375 23.53125 C-22.42945313 22.6959375 -22.71046875 21.860625 -23 21 C-23.23976563 20.3296875 -23.47953125 19.659375 -23.7265625 18.96875 C-24.92301441 15.33153618 -25.70665609 12.5081264 -24 9 C-22.02093786 7.83075103 -20.04862029 6.93203376 -17.91015625 6.08984375 C-15.53014732 4.73192455 -15.19742497 3.4089373 -14 1 C-9.62547638 -2.03212689 -4.9670818 -1.00289251 0 0 Z " fill="#B37254" transform="translate(27,172)"/>
<path d="M0 0 C5.02979202 0.506761 8.21437102 2.07988713 12.4375 4.8125 C13.58324653 5.53529387 14.72907905 6.25795144 15.875 6.98046875 C17.65725691 8.13225228 19.43302201 9.29460962 21.1875 10.48828125 C23.95751182 12.28755232 25.48845097 13.06820654 28.8125 12.625 C31.9006061 11.15842824 31.9006061 11.15842824 34.0703125 9.48046875 C41.76092312 4.06150714 48.02370275 4.6834764 57 6 C54.36227017 8.99868233 51.23842412 10.74183815 47.8125 12.75 C46.64596817 13.46997268 45.48190052 14.193953 44.3203125 14.921875 C42.35550069 16.15161604 40.37602626 17.3592015 38.3671875 18.515625 C35.88417451 20.20656575 34.50480826 21.38428918 33 24 C32.24492912 29.43994249 32.50697964 34.54353869 33 40 C33.08378906 40.92941406 33.16757813 41.85882813 33.25390625 42.81640625 C33.44940787 44.55109521 33.71301348 46.27808089 34 48 C29.05 48 24.1 48 19 48 C19.33 45.69 19.66 43.38 20 41 C21.43785667 30.51924698 21.43785667 30.51924698 17.96875 20.91796875 C11.81949211 15.16629219 4.4225162 10.9120417 -3 7 C-1.125 2.25 -1.125 2.25 0 0 Z " fill="#A3B3C0" transform="translate(69,161)"/>
<path d="M0 0 C1.22799316 0.00201416 2.45598633 0.00402832 3.72119141 0.00610352 C15.19278781 0.1289872 26.47175276 1.2499387 37.80908203 2.96606445 C39.77589011 3.25254574 41.75486793 3.45404644 43.734375 3.6328125 C46.1875 4.3125 46.1875 4.3125 47.6484375 6.30859375 C47.95007813 7.11425781 48.25171875 7.91992188 48.5625 8.75 C48.87960938 9.55308594 49.19671875 10.35617188 49.5234375 11.18359375 C50.1875 13.3125 50.1875 13.3125 50.1875 15.3125 C49.30578125 15.20292969 48.4240625 15.09335938 47.515625 14.98046875 C37.10256478 13.73603981 26.66495815 12.7837326 16.2166748 11.89297485 C14.62936783 11.75731431 13.04220476 11.61995806 11.4552002 11.48080444 C-5.03950404 9.18678872 -5.03950404 9.18678872 -20.8125 12.3125 C-22.58527259 13.83257842 -22.58527259 13.83257842 -23.8125 15.3125 C-24.42072898 8.13539803 -24.42072898 8.13539803 -21.6875 4.4375 C-15.00866124 -0.49903299 -7.96298636 -0.03513877 0 0 Z " fill="#454A51" transform="translate(82.8125,66.6875)"/>
<path d="M0 0 C24.36634308 -1.76593555 24.36634308 -1.76593555 29.953125 2.203125 C35.17450033 7.79091264 36 10.07389672 36 18 C24.12 18 12.24 18 0 18 C0 12.06 0 6.12 0 0 Z " fill="#EDEDED" transform="translate(98,238)"/>
<path d="M0 0 C1.07354736 0.02094727 2.14709473 0.04189453 3.25317383 0.06347656 C4.41655273 0.07636719 5.57993164 0.08925781 6.77856445 0.10253906 C7.99350586 0.13605469 9.20844727 0.16957031 10.46020508 0.20410156 C11.68674805 0.22214844 12.91329102 0.24019531 14.17700195 0.25878906 C17.20923466 0.30598335 20.241067 0.3777272 23.27270508 0.45410156 C23.27270508 6.39410156 23.27270508 12.33410156 23.27270508 18.45410156 C11.39270508 18.45410156 -0.48729492 18.45410156 -12.72729492 18.45410156 C-12.72729492 11.45410156 -12.72729492 11.45410156 -11.30151367 9.37988281 C-10.67889648 8.8475 -10.0562793 8.31511719 -9.41479492 7.76660156 C-6.63563965 5.34042457 -6.63563965 5.34042457 -4.48706055 2.3737793 C-2.72729492 0.45410156 -2.72729492 0.45410156 0 0 Z " fill="#EDEDED" transform="translate(70.727294921875,237.5458984375)"/>
<path d="M0 0 C4.49797113 1.68673918 8.72886302 3.81673892 13 6 C13.66 4.02 14.32 2.04 15 0 C15.66 0 16.32 0 17 0 C18.625 2.5 18.625 2.5 20 5 C20.7425 4.690625 21.485 4.38125 22.25 4.0625 C24.50692176 3.1905075 26.6450153 2.52332993 29 2 C26.78071806 4.90802461 25.07030857 6.95312762 22 9 C21.74726946 11.6296011 21.67189257 14.00248401 21.75 16.625 C21.76095703 17.346875 21.77191406 18.06875 21.78320312 18.8125 C21.88256984 23.59938346 22.2120965 28.27257901 23 33 C18.05 33 13.1 33 8 33 C8.33 30.69 8.66 28.38 9 26 C10.39829779 15.59127482 10.39829779 15.59127482 6.9921875 6.15234375 C4.74988243 4.21580755 2.4970788 2.58544686 0 1 C0 0.67 0 0.34 0 0 Z " fill="#E4F0F9" transform="translate(80,176)"/>
<path d="M0 0 C3.99890929 1.27511131 5.62486713 2.34251495 7.5625 6.0625 C8.62093387 8.22154845 8.62093387 8.22154845 10 10 C11.98874518 10.65997978 11.98874518 10.65997978 14 11 C16.25 12.9375 16.25 12.9375 18 15 C18 15.66 18 16.32 18 17 C16.63671875 18.33984375 16.63671875 18.33984375 14.6875 19.9375 C10.41401768 23.55234526 6.4981494 27.43947076 2.59448242 31.44311523 C1.41334009 32.64569848 0.20878505 33.82520539 -1 35 C-1.33 35 -1.66 35 -2 35 C-1.93941406 33.98164063 -1.87882813 32.96328125 -1.81640625 31.9140625 C-1.18594357 21.27738322 -0.5848493 10.63927985 0 0 Z " fill="#C0D1DF" transform="translate(133,161)"/>
<path d="M0 0 C2.79424631 1.0531345 3.81363878 1.81363878 6 4 C6.875 7.75 6.875 7.75 7 11 C5.43789839 11.05459773 3.87522911 11.09306101 2.3125 11.125 C1.00732422 11.15980469 1.00732422 11.15980469 -0.32421875 11.1953125 C-3 11 -3 11 -5.36328125 9.9921875 C-8.85504329 8.67825038 -11.78359022 8.88107489 -15.5 9 C-20.24842946 9.15194974 -23.70238904 9.11574693 -28 7 C-27.79803569 3.36464239 -27.21677989 2.2005214 -24.5 -0.3125 C-16.94060045 -3.9572105 -7.90881257 -1.96596903 0 0 Z " fill="#3F3F41" transform="translate(109,144)"/>
<path d="M0 0 C0.33 0 0.66 0 1 0 C1.33686543 4.5414119 1.66887125 9.0831665 2 13.625 C2.09539063 14.91019531 2.19078125 16.19539063 2.2890625 17.51953125 C2.37929688 18.76347656 2.46953125 20.00742188 2.5625 21.2890625 C2.68818359 23.00150146 2.68818359 23.00150146 2.81640625 24.74853516 C2.99101731 27.84091568 3.03281022 30.90353537 3 34 C1.515 34.495 1.515 34.495 0 35 C-0.42410156 34.11699219 -0.84820312 33.23398438 -1.28515625 32.32421875 C-4.71604084 25.27808881 -8.32262708 18.66122358 -12.8125 12.20703125 C-13.204375 11.47871094 -13.59625 10.75039062 -14 10 C-13 7 -13 7 -10.6875 5.3125 C-8 4 -8 4 -4 4 C-1.81222534 2.0624994 -1.81222534 2.0624994 0 0 Z " fill="#BED1E0" transform="translate(57,162)"/>
<path d="M0 0 C0.125 6.75 0.125 6.75 -1 9 C-8.85583159 11.67098274 -17.79360706 11.58420942 -26 12 C-26.36109542 10.35567294 -26.71370076 8.7094792 -27.0625 7.0625 C-27.25972656 6.14597656 -27.45695312 5.22945312 -27.66015625 4.28515625 C-27.77230469 3.53105469 -27.88445313 2.77695313 -28 2 C-23.31172022 -2.68827978 -6.33356571 -0.08546041 0 0 Z " fill="#D48A4A" transform="translate(89,201)"/>
<path d="M0 0 C20.85106383 -0.38297872 20.85106383 -0.38297872 28 2 C27.67 5.3 27.34 8.6 27 12 C3.86666667 10.43333333 3.86666667 10.43333333 1 9 C0.5859375 6.93359375 0.5859375 6.93359375 0.375 4.4375 C0.30023438 3.61121094 0.22546875 2.78492188 0.1484375 1.93359375 C0.09945312 1.29550781 0.05046875 0.65742188 0 0 Z " fill="#D4894A" transform="translate(102,201)"/>
<path d="M0 0 C7.92 0 15.84 0 24 0 C24 3.3 24 6.6 24 10 C15.75 10 7.5 10 -1 10 C-0.67 6.7 -0.34 3.4 0 0 Z " fill="#4C4EA7" transform="translate(99,228)"/>
<path d="M0 0 C7.92 0 15.84 0 24 0 C24.33 3.3 24.66 6.6 25 10 C16.75 10 8.5 10 0 10 C0 6.7 0 3.4 0 0 Z " fill="#4C4EA7" transform="translate(69,228)"/>
<path d="M0 0 C11.88 0 23.76 0 36 0 C36 1.98 36 3.96 36 6 C24.12 6 12.24 6 0 6 C0 4.02 0 2.04 0 0 Z " fill="#C88955" transform="translate(98,250)"/>
<path d="M0 0 C11.88 0 23.76 0 36 0 C36 1.98 36 3.96 36 6 C24.12 6 12.24 6 0 6 C0 4.02 0 2.04 0 0 Z " fill="#C88955" transform="translate(58,250)"/>
<path d="M0 0 C1.45599609 0.14501953 1.45599609 0.14501953 2.94140625 0.29296875 C5.4375 0.8125 5.4375 0.8125 7.4375 2.8125 C7.84215316 5.89798033 8.08254806 7.85320058 7.4375 10.8125 C4.53481471 14.12985461 2.64376446 15.57124711 -1.6875 16.4375 C-4.5625 15.8125 -4.5625 15.8125 -6.9375 13.8125 C-9.161084 9.70742185 -9.0859603 7.44886264 -8.5625 2.8125 C-6.18446954 -0.7230486 -4.02734603 -0.45582478 0 0 Z " fill="#F6F4F3" transform="translate(84.5625,123.1875)"/>
<path d="M0 0 C12.18736606 0.45253984 23.98870677 1.9036272 36 4 C32.94021323 6.51031802 29.90302727 8.84995912 26.5 10.875 C25.7678125 11.32617188 25.035625 11.77734375 24.28125 12.2421875 C22 13 22 13 19.734375 12.4140625 C16.03691835 10.5019492 12.3774038 8.54204567 8.75 6.5 C8.0178125 6.09652344 7.285625 5.69304687 6.53125 5.27734375 C5.83515625 4.88675781 5.1390625 4.49617187 4.421875 4.09375 C3.78862305 3.73990234 3.15537109 3.38605469 2.50292969 3.02148438 C1 2 1 2 0 0 Z " fill="#7E492F" transform="translate(75,162)"/>
<path d="M0 0 C2.4609375 0.6875 2.4609375 0.6875 4.4609375 3.6875 C4.96929042 7.5848724 4.79055933 9.19306726 2.5859375 12.5 C0.05246926 15.10798201 -0.81164057 15.6084324 -4.4140625 16 C-7.5390625 15.6875 -7.5390625 15.6875 -9.8515625 14.125 C-12.10737516 10.86660394 -12.5390625 8.64274221 -12.5390625 4.6875 C-9.95450436 -1.51543954 -5.8500559 -0.62735184 0 0 Z " fill="#F7F3F2" transform="translate(121.5390625,127.3125)"/>
<path d="M0 0 C1.22799316 0.00201416 2.45598633 0.00402832 3.72119141 0.00610352 C15.19278781 0.1289872 26.47175276 1.2499387 37.80908203 2.96606445 C39.77589011 3.25254574 41.75486793 3.45404644 43.734375 3.6328125 C46.1875 4.3125 46.1875 4.3125 47.6484375 6.30859375 C47.95007813 7.11425781 48.25171875 7.91992188 48.5625 8.75 C48.87960938 9.55308594 49.19671875 10.35617188 49.5234375 11.18359375 C50.1875 13.3125 50.1875 13.3125 50.1875 15.3125 C49.5275 15.3125 48.8675 15.3125 48.1875 15.3125 C48.00316406 14.75820312 47.81882812 14.20390625 47.62890625 13.6328125 C46.68544531 11.27625674 45.70429829 9.35161175 44.1875 7.3125 C40.90432556 6.06715797 38.62675308 5.66008409 35.1875 5.3125 C33.455 5.04179688 33.455 5.04179688 31.6875 4.765625 C22.1766041 3.36710106 12.63685177 3.0824438 3.03741455 3.01495361 C1.64573177 3.00504336 0.25407345 2.9905719 -1.13751221 2.97137451 C-3.11758586 2.94746244 -5.09790735 2.94798034 -7.078125 2.94921875 C-8.80724121 2.94474731 -8.80724121 2.94474731 -10.57128906 2.94018555 C-14.26187038 3.3641187 -16.65239958 4.38422069 -19.8125 6.3125 C-21.69381569 8.86038853 -21.69381569 8.86038853 -22.8125 11.3125 C-23.625 9.625 -23.625 9.625 -23.8125 7.3125 C-17.53276321 -0.67989228 -9.33507026 -0.04119345 0 0 Z " fill="#54575D" transform="translate(82.8125,66.6875)"/>
<path d="M0 0 C2.9375 1.9375 2.9375 1.9375 5 5 C5.79784439 10.13612327 5.61707348 14.44902483 3 19 C2.9175 17.906875 2.835 16.81375 2.75 15.6875 C2.36353917 12.07601792 2.36353917 12.07601792 0.40625 10.375 C-2.73830875 8.57810929 -5.70115576 8.00255305 -9.25 7.3125 C-10.51328125 7.06113281 -11.7765625 6.80976562 -13.078125 6.55078125 C-14.04234375 6.36902344 -15.0065625 6.18726562 -16 6 C-15.21367187 5.37738281 -14.42734375 4.75476563 -13.6171875 4.11328125 C-11.06493625 2.1166083 -11.06493625 2.1166083 -9.125 0.1875 C-5.77542045 -1.68432387 -3.61460611 -1.01462628 0 0 Z " fill="#484C52" transform="translate(149,77)"/>
<path d="M0 0 C4.49797113 1.68673918 8.72886302 3.81673892 13 6 C13.66 4.02 14.32 2.04 15 0 C15.66 0 16.32 0 17 0 C18.625 2.5 18.625 2.5 20 5 C20.7425 4.690625 21.485 4.38125 22.25 4.0625 C24.50692176 3.1905075 26.6450153 2.52332993 29 2 C27.68962066 3.68477344 26.35156675 5.34808509 25 7 C24.46375 7.763125 23.9275 8.52625 23.375 9.3125 C19.57790758 12.01043409 15.51152208 11.3099519 11 11 C11 13.64 11 16.28 11 19 C10.67 19 10.34 19 10 19 C10.03222656 18.3709375 10.06445312 17.741875 10.09765625 17.09375 C10.03849873 12.7292398 9.84609458 9.9849818 6.9296875 6.58984375 C4.67467232 4.64233064 2.35554529 2.82257343 0 1 C0 0.67 0 0.34 0 0 Z " fill="#D6DEE4" transform="translate(80,176)"/>
<path d="M0 0 C5.24332799 2.0973312 5.77677779 2.52531786 8.3125 7.125 C8.82425781 8.03507813 9.33601562 8.94515625 9.86328125 9.8828125 C10.23839844 10.58148438 10.61351562 11.28015625 11 12 C9.35687553 13.50296685 7.71042916 15.00230281 6.0625 16.5 C5.14597656 17.3353125 4.22945312 18.170625 3.28515625 19.03125 C1 21 1 21 0 21 C0 14.07 0 7.14 0 0 Z " fill="#E2ECF3" transform="translate(133,161)"/>
<path d="M0 0 C6.93 0.33 13.86 0.66 21 1 C21 2.98 21 4.96 21 7 C13.58165418 7.09377123 6.33763707 7.17402193 -1 6 C-0.67 4.02 -0.34 2.04 0 0 Z " fill="#464445" transform="translate(109,121)"/>
<path d="M0 0 C3.63 0 7.26 0 11 0 C13 5.625 13 5.625 13 9 C8.05 9 3.1 9 -2 9 C-1.34 6.03 -0.68 3.06 0 0 Z " fill="#BED1E1" transform="translate(90,200)"/>
<path d="M0 0 C7.34918342 -0.43230491 13.90215087 1.18225815 21 3 C21 4.65 21 6.3 21 8 C13.86606248 7.48462048 6.98187183 6.55994099 0 5 C0 3.35 0 1.7 0 0 Z " fill="#404042" transform="translate(75,117)"/>
<path d="M0 0 C3.78517206 0.25662183 5.01775858 0.68704824 7.6875 3.25 C6.8125 8.125 6.8125 8.125 5.6875 9.25 C-1.50639313 9.71412214 -1.50639313 9.71412214 -4.375 8.0625 C-5.7070522 5.48719907 -5.16602401 3.95282604 -4.3125 1.25 C-3.3125 0.25 -3.3125 0.25 0 0 Z " fill="#945435" transform="translate(99.3125,133.75)"/>
<path d="M0 0 C5.61 0.33 11.22 0.66 17 1 C15.68 1.99 14.36 2.98 13 4 C15.27771895 6.80844958 16.36197888 7.91735478 20.015625 8.390625 C21.61664063 8.32101563 21.61664063 8.32101563 23.25 8.25 C24.32765625 8.21390625 25.4053125 8.1778125 26.515625 8.140625 C27.33546875 8.09421875 28.1553125 8.0478125 29 8 C23.65914018 12.59907373 23.65914018 12.59907373 20 13 C17.81762695 12.13549805 17.81762695 12.13549805 15.48828125 10.76171875 C14.22854492 10.02598633 14.22854492 10.02598633 12.94335938 9.27539062 C12.07517578 8.75138672 11.20699219 8.22738281 10.3125 7.6875 C9.43271484 7.17509766 8.55292969 6.66269531 7.64648438 6.13476562 C1.14501232 2.29002463 1.14501232 2.29002463 0 0 Z " fill="#885138" transform="translate(75,162)"/>
<path d="M0 0 C3.02938429 4.54407644 4.68765498 7.38415097 4 13 C1.83476695 16.40250907 -0.16409694 18.63887311 -4 20 C-4.99 20 -5.98 20 -7 20 C-7 18.68 -7 17.36 -7 16 C-6.37609375 15.56042969 -5.7521875 15.12085938 -5.109375 14.66796875 C-2.0976166 12.28644868 -1.98385514 10.01846847 -1.25 6.3125 C-1.00765625 5.13300781 -0.7653125 3.95351562 -0.515625 2.73828125 C-0.34546875 1.83464844 -0.1753125 0.93101562 0 0 Z " fill="#9F5C3E" transform="translate(143,132)"/>
<path d="M0 0 C0.06058594 0.77085938 0.12117188 1.54171875 0.18359375 2.3359375 C0.26738281 3.33882812 0.35117187 4.34171875 0.4375 5.375 C0.51871094 6.37273437 0.59992187 7.37046875 0.68359375 8.3984375 C0.84965626 10.97927613 0.84965626 10.97927613 2 13 C4.52733235 13.65555119 4.52733235 13.65555119 7 14 C5.68 14.33 4.36 14.66 3 15 C3 15.99 3 16.98 3 18 C-0.37758771 16.81327999 -2.74844294 15.82091632 -5 13 C-5.62251646 9.95471679 -5.51913686 7.05959383 -5 4 C-1.97560976 0 -1.97560976 0 0 0 Z " fill="#9F5C3E" transform="translate(59,125)"/>
<path d="M0 0 C0.33 0 0.66 0 1 0 C1.33 5.94 1.66 11.88 2 18 C1.01 18.33 0.02 18.66 -1 19 C-2.03290841 17.06891037 -3.05098672 15.129882 -4.0625 13.1875 C-4.91521484 11.56908203 -4.91521484 11.56908203 -5.78515625 9.91796875 C-7 7 -7 7 -6 4 C-4.35 4 -2.7 4 -1 4 C-0.67 2.68 -0.34 1.36 0 0 Z " fill="#BDC9D4" transform="translate(58,178)"/>
<path d="M0 0 C2.375 0.75 2.375 0.75 3.375 1.75 C3.625 5.1875 3.625 5.1875 3.375 8.75 C0.375 10.75 0.375 10.75 -2.3125 10.375 C-3.075625 10.16875 -3.83875 9.9625 -4.625 9.75 C-5.95578101 3.33805513 -5.95578101 3.33805513 -4.5 0.75 C-2.625 -0.25 -2.625 -0.25 0 0 Z " fill="#444649" transform="translate(86.625,125.25)"/>
<path d="M0 0 C2.31 0.33 4.62 0.66 7 1 C6.67 4.3 6.34 7.6 6 11 C3.03 10.67 0.06 10.34 -3 10 C-2.01 6.7 -1.02 3.4 0 0 Z " fill="#BE7F4B" transform="translate(123,202)"/>
<path d="M0 0 C0.94875 0.04125 1.8975 0.0825 2.875 0.125 C4.25625018 2.88750036 4.06579306 5.07231099 3.875 8.125 C1.875 10.125 1.875 10.125 -0.625 10.375 C-3.125 10.125 -3.125 10.125 -5.125 8.125 C-5.375 5.125 -5.375 5.125 -5.125 2.125 C-3.125 0.125 -3.125 0.125 0 0 Z " fill="#3F4145" transform="translate(116.125,128.875)"/>
<path d="M0 0 C2.00720923 0.28674418 4.0085944 0.61866701 6 1 C6.99 3.97 7.98 6.94 9 10 C6.36 10.33 3.72 10.66 1 11 C0.63890458 9.35567294 0.28629924 7.7094792 -0.0625 6.0625 C-0.25972656 5.14597656 -0.45695312 4.22945312 -0.66015625 3.28515625 C-0.77230469 2.53105469 -0.88445313 1.77695313 -1 1 C-0.67 0.67 -0.34 0.34 0 0 Z " fill="#BE7E4A" transform="translate(62,202)"/>
<path d="M0 0 C0 5.61 0 11.22 0 17 C-4.05596753 12.94403247 -5.04667653 11.07864102 -7 6 C-6.02388578 4.99702025 -5.04402202 3.99768827 -4.0625 3 C-3.51722656 2.443125 -2.97195312 1.88625 -2.41015625 1.3125 C-1 0 -1 0 0 0 Z " fill="#E4F0F8" transform="translate(58,162)"/>
<path d="M0 0 C0.66 0 1.32 0 2 0 C3.625 2.5 3.625 2.5 5 5 C5.7425 4.690625 6.485 4.38125 7.25 4.0625 C9.50692176 3.1905075 11.6450153 2.52332993 14 2 C11.61042731 5.24299151 9.7952131 7.50902342 6 9 C6 8.34 6 7.68 6 7 C2.37 7 -1.26 7 -5 7 C-4.01 6.67 -3.02 6.34 -2 6 C-0.77479736 2.99152582 -0.77479736 2.99152582 0 0 Z " fill="#CAD5DC" transform="translate(95,176)"/>
<path d="M0 0 C-0.93274109 1.12894876 -1.87140122 2.25300876 -2.8125 3.375 C-3.33457031 4.00148437 -3.85664063 4.62796875 -4.39453125 5.2734375 C-6 7 -6 7 -9 9 C-9.125 2.375 -9.125 2.375 -8 -1 C-4.37673261 -2.2077558 -3.35853631 -1.54311128 0 0 Z " fill="#B6C8D8" transform="translate(140,187)"/>
<path d="M0 0 C-2.5654594 2.5654594 -4.47686668 2.54046087 -8 3 C-8.33 3.99 -8.66 4.98 -9 6 C-10.70703125 6.984375 -10.70703125 6.984375 -12.8125 7.75 C-13.49957031 8.01296875 -14.18664063 8.2759375 -14.89453125 8.546875 C-17.29762974 9.0640539 -18.66695933 8.65970208 -21 8 C-18.44342265 6.65411674 -15.88076095 5.32324672 -13.3125 4 C-12.59126953 3.6184375 -11.87003906 3.236875 -11.12695312 2.84375 C-7.29453447 0.8837916 -4.42628851 -0.55874253 0 0 Z " fill="#A77259" transform="translate(51,196)"/>
<path d="M0 0 C2.625 1.0625 2.625 1.0625 5 3 C5.3125 6.1875 5.3125 6.1875 5 9 C4.01 9.33 3.02 9.66 2 10 C0.68 7.03 -0.64 4.06 -2 1 C-1.34 0.67 -0.68 0.34 0 0 Z " fill="#AAB8C5" transform="translate(55,187)"/>
<path d="M0 0 C0.99 0.66 1.98 1.32 3 2 C3 2.66 3 3.32 3 4 C1.04098546 3.88617347 -0.9172338 3.75858875 -2.875 3.625 C-3.96554688 3.55539063 -5.05609375 3.48578125 -6.1796875 3.4140625 C-9 3 -9 3 -11 1 C-7.31233808 -0.18005182 -3.84889483 -0.20993972 0 0 Z " fill="#A96545" transform="translate(174,181)"/>
<path d="M0 0 C1.32 0.66 2.64 1.32 4 2 C4.44041451 7.28497409 4.44041451 7.28497409 4 10 C1.5 12.5 1.5 12.5 -1 14 C-1 13.01 -1 12.02 -1 11 C-0.34 10.67 0.32 10.34 1 10 C1.11320856 4.91696314 1.11320856 4.91696314 0 0 Z " fill="#E5E1DF" transform="translate(88,124)"/>
<path d="M0 0 C1.65 0.33 3.3 0.66 5 1 C5 1.33 5 1.66 5 2 C3.02 2.66 1.04 3.32 -1 4 C-1 4.928125 -1 5.85625 -1 6.8125 C-1 8.875 -1 10.9375 -1 13 C-1.66 12.67 -2.32 12.34 -3 12 C-3.875 8.75 -3.875 8.75 -4 5 C-2.0625 2.0625 -2.0625 2.0625 0 0 Z " fill="#E0DAD7" transform="translate(113,127)"/>
<path d="M0 0 C1.32 0.33 2.64 0.66 4 1 C2.68 3.97 1.36 6.94 0 10 C-0.99 10 -1.98 10 -3 10 C-2.01 6.7 -1.02 3.4 0 0 Z " fill="#CA8244" transform="translate(123,202)"/>
<path d="M0 0 C1.4370809 -0.05422947 2.87475462 -0.09289723 4.3125 -0.125 C5.11300781 -0.14820313 5.91351563 -0.17140625 6.73828125 -0.1953125 C9 0 9 0 12 2 C7.38 2.66 2.76 3.32 -2 4 C-1.34 2.68 -0.68 1.36 0 0 Z " fill="#A96444" transform="translate(15,173)"/>
<path d="M0 0 C3.80979086 0.9357381 5.14222468 1.8738586 7.5625 4.875 C6.551875 4.524375 5.54125 4.17375 4.5 3.8125 C0.63912622 2.6857552 -2.49144586 3.06968283 -6.4375 3.875 C-6.4375 3.215 -6.4375 2.555 -6.4375 1.875 C-3.4375 -0.125 -3.4375 -0.125 0 0 Z " fill="#5C5C5F" transform="translate(145.4375,76.125)"/>
<path d="M0 0 C2.97 0.495 2.97 0.495 6 1 C6.99 3.97 7.98 6.94 9 10 C8.01 9.67 7.02 9.34 6 9 C4.98470459 6.67328135 3.98511802 4.3396553 3 2 C2.01 1.34 1.02 0.68 0 0 Z " fill="#CA8245" transform="translate(62,202)"/>
<path d="M0 0 C0.66 0.33 1.32 0.66 2 1 C-0.88406243 4.40843742 -2.3708265 5.86591384 -6.8125 6.8125 C-8.3903125 6.9053125 -8.3903125 6.9053125 -10 7 C-6.81404865 4.36021174 -3.69029454 1.89501612 0 0 Z " fill="#96A3AE" transform="translate(109,167)"/>
<path d="M0 0 C1.65 0 3.3 0 5 0 C5 0.99 5 1.98 5 3 C2.5 5.1875 2.5 5.1875 0 7 C0 4.69 0 2.38 0 0 Z " fill="#B3BCC5" transform="translate(131,189)"/>
<path d="M0 0 C2.5 2.3125 2.5 2.3125 5 5 C5 5.99 5 6.98 5 8 C2.4636387 6.98545548 1.20648539 6.3146444 -0.3125 4 C-0.539375 3.34 -0.76625 2.68 -1 2 C-0.67 1.34 -0.34 0.68 0 0 Z " fill="#B67C60" transform="translate(145,126)"/>
<path d="M0 0 C2.31 0.33 4.62 0.66 7 1 C7 1.99 7 2.98 7 4 C4.69 3.34 2.38 2.68 0 2 C0 1.34 0 0.68 0 0 Z " fill="#B2C3D1" transform="translate(52,185)"/>
<path d="M0 0 C0.66 0 1.32 0 2 0 C2.66 1.65 3.32 3.3 4 5 C2.02 5 0.04 5 -2 5 C-1.34 3.35 -0.68 1.7 0 0 Z " fill="#C2CED7" transform="translate(95,176)"/>
<path d="M0 0 C3.45925163 1.2491742 6.14693203 2.67527795 9 5 C7.68 5.33 6.36 5.66 5 6 C3.35 4.02 1.7 2.04 0 0 Z " fill="#C8D1D8" transform="translate(80,176)"/>
<path d="M0 0 C3 3 3 3 3.1875 5.6875 C3.0946875 6.8321875 3.0946875 6.8321875 3 8 C2.01 8.495 2.01 8.495 1 9 C0.67 6.03 0.34 3.06 0 0 Z " fill="#CF9160" transform="translate(60,194)"/>
<path d="M0 0 C0.33 0 0.66 0 1 0 C0.67 2.64 0.34 5.28 0 8 C-0.99 7.67 -1.98 7.34 -3 7 C-2.01 4.69 -1.02 2.38 0 0 Z " fill="#CF915F" transform="translate(130,195)"/>
</svg>
