<?xml version="1.0" encoding="UTF-8"?>
<svg version="1.1" xmlns="http://www.w3.org/2000/svg" width="192" height="256">
<path d="M0 0 C0.99 1.485 0.99 1.485 2 3 C2.825 3.33 3.65 3.66 4.5 4 C7 5 7 5 9 8 C9.43738696 9.71444889 9.80848688 11.44667784 10.125 13.1875 C10.29257813 14.08855469 10.46015625 14.98960938 10.6328125 15.91796875 C10.81457031 16.94857422 10.81457031 16.94857422 11 18 C12.65 18.33 14.3 18.66 16 19 C15.41339754 25.67728333 14.76418989 32.34063095 14 39 C15.0725 39.515625 16.145 40.03125 17.25 40.5625 C21.20671582 42.86590252 23.60033714 45.60939091 25 50 C25.82345845 55.90457135 25.57165321 61.04577135 22 66 C16.38992042 71 16.38992042 71 12 71 C12.33 71.66 12.66 72.32 13 73 C13.06950541 74.54023996 13.08452357 76.08334988 13.0625 77.625 C13.05347656 78.44226563 13.04445313 79.25953125 13.03515625 80.1015625 C13.02355469 80.72804688 13.01195312 81.35453125 13 82 C14.051875 81.9175 15.10375 81.835 16.1875 81.75 C20.64183957 82.04208784 21.6525148 83.26915681 25 86 C28.42333251 85.84077523 29.5631237 85.4368763 32 83 C32.4125 81.906875 32.825 80.81375 33.25 79.6875 C34.9430978 75.73969147 36.9893954 72.76685505 41 71 C46.34204331 70.16461874 51.92455927 69.85533142 56.6875 72.75 C58.94080219 74.94240213 59.77905593 75.90678308 60 79 C58.02 80.32 56.04 81.64 54 83 C53.46375 82.649375 52.9275 82.29875 52.375 81.9375 C49.26725237 80.71075751 47.20568297 81.27143569 44 82 C44.639375 82.598125 45.27875 83.19625 45.9375 83.8125 C48.72034752 86.76400494 48.98322208 88.52182932 49.125 92.5625 C49 96 49 96 48 98 C50.475 97.505 50.475 97.505 53 97 C53.66 95.02 54.32 93.04 55 91 C61.15234375 90.90234375 61.15234375 90.90234375 63 91 C64 92 64 92 64 95.6875 C63.51245061 99.40088985 62.39345195 101.01265134 59.5625 103.4375 C55.94306633 106.21063603 53.7132718 107.15346238 49.125 107.1875 C47.82949219 107.20876953 47.82949219 107.20876953 46.5078125 107.23046875 C44 107 44 107 42.10717773 106 C39.78904497 104.8998874 38.32449195 104.7548743 35.77734375 104.76953125 C34.99166016 104.77146484 34.20597656 104.77339844 33.39648438 104.77539062 C32.17928711 104.79375977 32.17928711 104.79375977 30.9375 104.8125 C30.12216797 104.81314453 29.30683594 104.81378906 28.46679688 104.81445312 C24.98599679 104.84019446 22.33437664 104.88854112 19 106 C15.21674839 106.60532026 12.88088409 106.56370815 9.61328125 104.47265625 C8.02415963 103.22131893 6.45760792 101.94064702 4.91796875 100.62890625 C3.0910551 98.94630976 3.0910551 98.94630976 1 98 C-0.3744409 103.90699546 -0.3744409 103.90699546 1.19921875 109.578125 C2.28091783 111.28579522 3.38018497 112.98245457 4.49609375 114.66796875 C8.52148452 120.90993833 8.55769843 127.8096738 8 135 C7.60885235 136.65208414 7.19269461 138.29847591 6.75 139.9375 C5.48278371 145.35118592 7.15958065 149.15233726 9.09765625 154.22265625 C10.33578751 158.03352779 10.15586234 160.20216659 9 164 C8.34 164.66 7.68 165.32 7 166 C2.76384965 164.16762752 -1.47198242 162.33452198 -5.70751953 160.50073242 C-7.14883816 159.87683205 -8.59024399 159.25313309 -10.03173828 158.62963867 C-12.1021171 157.7340894 -14.17218259 156.83781939 -16.2421875 155.94140625 C-17.21102371 155.52260948 -17.21102371 155.52260948 -18.19943237 155.09535217 C-22.77225659 153.11387171 -22.77225659 153.11387171 -25 152 C-24.38184878 147.44657625 -22.53090429 143.71386 -20.4375 139.6875 C-19.303125 137.480625 -18.16875 135.27375 -17 133 C-23.27 133.99 -29.54 134.98 -36 136 C-36.33 137.52625 -36.66 139.0525 -37 140.625 C-37.2784375 141.91277344 -37.2784375 141.91277344 -37.5625 143.2265625 C-38.59960366 149.19498066 -38.59960366 149.19498066 -36.21484375 154.52734375 C-34.69668411 156.134041 -33.1758468 157.73821234 -31.65234375 159.33984375 C-30 162 -30 162 -31 169 C-43.21 169 -55.42 169 -68 169 C-67.38125 165.266875 -66.7625 161.53375 -66.125 157.6875 C-65.83906982 155.95826294 -65.83906982 155.95826294 -65.54736328 154.1940918 C-64.71327855 149.17635072 -63.8490108 144.16967594 -62.90234375 139.171875 C-60.21664156 124.393852 -62.8066735 113.54260947 -68.35742188 99.80908203 C-69 98 -69 98 -69 96 C-69.99 96.495 -69.99 96.495 -71 97 C-71.2475 98.0725 -71.495 99.145 -71.75 100.25 C-73.34536939 105.03610816 -74.87578893 106.22247009 -79 109 C-79.99 109 -80.98 109 -82 109 C-82.93786082 114.05009595 -82.93786082 114.05009595 -82 119 C-81.113125 119.0825 -80.22625 119.165 -79.3125 119.25 C-75.48395087 120.11684131 -73.7611973 121.2388027 -71 124 C-68.62595102 128.06979825 -68.4032751 132.38894395 -69 137 C-70.45539721 140.67314533 -71.99001088 143.42000932 -75 146 C-78.16115776 144.63016497 -78.9927092 144.0109362 -81 141 C-80.9765625 138.30078125 -80.9765625 138.30078125 -80.625 135.3125 C-80.51414062 134.31863281 -80.40328125 133.32476562 -80.2890625 132.30078125 C-80.19367188 131.54152344 -80.09828125 130.78226563 -80 130 C-80.66 129.67 -81.32 129.34 -82 129 C-82.2475 129.61875 -82.495 130.2375 -82.75 130.875 C-84.30552932 133.51939985 -85.07621471 134.07669938 -88 135 C-90.6912795 135.15467124 -93.29937883 135.09002071 -96 135 C-94.48601545 138.78496138 -93.9855604 139.0072198 -90 141 C-90 143.97 -90 146.94 -90 150 C-93.71693054 150.35399338 -95.75121713 150.12439143 -99.125 148.4375 C-102.97098336 145.17677498 -105.47708318 142.03761795 -106.34765625 136.98046875 C-106.49870499 133.54575174 -106.11752647 131.22036213 -104.5 128.1875 C-102.90764694 124.80374974 -102.92783144 123.50186377 -103.125 119.875 C-103.30386862 114.13565052 -101.6875402 110.15134698 -99.29296875 105 C-98.00430557 102.00998996 -97.22866702 99.16738498 -96.5 96 C-95.6065225 92.52591989 -95.17651007 91.1908217 -92.6875 88.5 C-84.625 84 -84.625 84 -82 84 C-82.0825 83.13375 -82.165 82.2675 -82.25 81.375 C-81.93092448 77.06748045 -80.81951153 75.25328253 -78 72 C-73.90611677 69.76697278 -70.67400265 68.57509067 -66 69 C-66 68.34 -66 67.68 -66 67 C-67.03125 66.938125 -68.0625 66.87625 -69.125 66.8125 C-73.98213866 65.7940677 -75.52665259 64.47334741 -79 61 C-82.09542285 56.12972718 -81.5958585 50.55638055 -81 45 C-78.72245661 40.09452193 -75.73393317 37.5642138 -71 35 C-69.68 35 -68.36 35 -67 35 C-67.24447876 34.13036621 -67.24447876 34.13036621 -67.49389648 33.24316406 C-68.27677556 29.77326877 -68.10312359 26.287377 -68.0625 22.75 C-68.05798828 22.00492188 -68.05347656 21.25984375 -68.04882812 20.4921875 C-68.03709246 18.6614236 -68.0191585 16.83070127 -68 15 C-66.35 14.67 -64.7 14.34 -63 14 C-62.8040625 13.16855469 -62.608125 12.33710937 -62.40625 11.48046875 C-59.98365405 2.67767398 -59.98365405 2.67767398 -57.12890625 0.7109375 C-55.0625 0.0625 -55.0625 0.0625 -52.93359375 -0.4375 C-50.689592 -0.91805289 -50.689592 -0.91805289 -48.625 -3.4375 C-43.58218717 -8.36024586 -36.45236703 -10.53766428 -29.48046875 -11.03125 C-17.88784284 -10.88520117 -8.61748568 -7.83407789 0 0 Z " fill="#43749A" transform="translate(121,87)"/>
<path d="M0 0 C0.99 1.485 0.99 1.485 2 3 C2.825 3.33 3.65 3.66 4.5 4 C7 5 7 5 9 8 C9.43738696 9.71444889 9.80848688 11.44667784 10.125 13.1875 C10.29257813 14.08855469 10.46015625 14.98960938 10.6328125 15.91796875 C10.81457031 16.94857422 10.81457031 16.94857422 11 18 C12.65 18.33 14.3 18.66 16 19 C15.41339754 25.67728333 14.76418989 32.34063095 14 39 C15.0725 39.515625 16.145 40.03125 17.25 40.5625 C21.20671582 42.86590252 23.60033714 45.60939091 25 50 C25.82345845 55.90457135 25.57165321 61.04577135 22 66 C18.50453853 69.40513947 16.25799073 70.95525974 11.265625 71.1328125 C10.18796875 71.08898437 9.1103125 71.04515625 8 71 C8.14100857 68.72886197 8.28796755 66.45809275 8.4375 64.1875 C8.55931641 62.29064453 8.55931641 62.29064453 8.68359375 60.35546875 C9 57 9 57 10 54 C0.42458186 58.61747941 -4.46556787 63.60525522 -8.23828125 73.5703125 C-9.00979264 76.03123601 -9.54409658 78.46319088 -10 81 C-23.00695892 80.43558473 -36.00588887 79.80997775 -49 79 C-49.02578125 78.3709375 -49.0515625 77.741875 -49.078125 77.09375 C-49.57636281 69.57488854 -51.04776959 63.32647485 -56.875 58.1875 C-60.3472898 55.64316928 -60.3472898 55.64316928 -66 53 C-66 57.62 -66 62.24 -66 67 C-72.16857998 66.6298852 -74.75775103 65.24224897 -79 61 C-82.09542285 56.12972718 -81.5958585 50.55638055 -81 45 C-78.72245661 40.09452193 -75.73393317 37.5642138 -71 35 C-69.68 35 -68.36 35 -67 35 C-67.16298584 34.42024414 -67.32597168 33.84048828 -67.49389648 33.24316406 C-68.27677556 29.77326877 -68.10312359 26.287377 -68.0625 22.75 C-68.05798828 22.00492188 -68.05347656 21.25984375 -68.04882812 20.4921875 C-68.03709246 18.6614236 -68.0191585 16.83070127 -68 15 C-66.35 14.67 -64.7 14.34 -63 14 C-62.8040625 13.16855469 -62.608125 12.33710937 -62.40625 11.48046875 C-59.98365405 2.67767398 -59.98365405 2.67767398 -57.12890625 0.7109375 C-55.0625 0.0625 -55.0625 0.0625 -52.93359375 -0.4375 C-50.689592 -0.91805289 -50.689592 -0.91805289 -48.625 -3.4375 C-43.58218717 -8.36024586 -36.45236703 -10.53766428 -29.48046875 -11.03125 C-17.88784284 -10.88520117 -8.61748568 -7.83407789 0 0 Z " fill="#5392C3" transform="translate(121,87)"/>
<path d="M0 0 C6.88189828 1.72047457 10.91513609 5.44004634 15 11 C17.54960128 15.49215464 17.19688833 19.97934763 17 25 C15.48019531 25.07347656 15.48019531 25.07347656 13.9296875 25.1484375 C12.57810089 25.22352564 11.22653962 25.29907081 9.875 25.375 C9.20984375 25.4059375 8.5446875 25.436875 7.859375 25.46875 C0.90870048 25.77652202 0.90870048 25.77652202 -5 29 C-5.29087383 33.26614956 -4.68230576 36.10966793 -3 40 C-3 40.99 -3 41.98 -3 43 C-3.99 43.495 -3.99 43.495 -5 44 C-5.2475 45.0725 -5.495 46.145 -5.75 47.25 C-7.34536939 52.03610816 -8.87578893 53.22247009 -13 56 C-13.99 56 -14.98 56 -16 56 C-16.93786082 61.05009595 -16.93786082 61.05009595 -16 66 C-15.113125 66.0825 -14.22625 66.165 -13.3125 66.25 C-9.48395087 67.11684131 -7.7611973 68.2388027 -5 71 C-2.62595102 75.06979825 -2.4032751 79.38894395 -3 84 C-4.45539721 87.67314533 -5.99001088 90.42000932 -9 93 C-12.16115776 91.63016497 -12.9927092 91.0109362 -15 88 C-14.9765625 85.30078125 -14.9765625 85.30078125 -14.625 82.3125 C-14.51414062 81.31863281 -14.40328125 80.32476562 -14.2890625 79.30078125 C-14.19367187 78.54152344 -14.09828125 77.78226562 -14 77 C-14.66 76.67 -15.32 76.34 -16 76 C-16.2475 76.61875 -16.495 77.2375 -16.75 77.875 C-18.30552932 80.51939985 -19.07621471 81.07669938 -22 82 C-24.6912795 82.15467124 -27.29937883 82.09002071 -30 82 C-28.48601545 85.78496138 -27.9855604 86.0072198 -24 88 C-24 90.97 -24 93.94 -24 97 C-27.71693054 97.35399338 -29.75121713 97.12439143 -33.125 95.4375 C-36.97098336 92.17677498 -39.47708318 89.03761795 -40.34765625 83.98046875 C-40.49870499 80.54575174 -40.11752647 78.22036213 -38.5 75.1875 C-36.90764694 71.80374974 -36.92783144 70.50186377 -37.125 66.875 C-37.30386862 61.13565052 -35.6875402 57.15134698 -33.29296875 52 C-32.00430557 49.00998996 -31.22866702 46.16738498 -30.5 43 C-29.6065225 39.52591989 -29.17651007 38.1908217 -26.6875 35.5 C-18.625 31 -18.625 31 -16 31 C-16.12375 29.700625 -16.12375 29.700625 -16.25 28.375 C-15.93092448 24.06748045 -14.81951153 22.25328253 -12 19 C-7.52396303 16.55852529 -5.1732371 16 0 16 C0 10.72 0 5.44 0 0 Z " fill="#334D62" transform="translate(55,140)"/>
<path d="M0 0 C0.125 7.75 0.125 7.75 -1 10 C-2.32 10 -3.64 10 -5 10 C-5 10.66 -5 11.32 -5 12 C-5.5986084 11.98259766 -6.1972168 11.96519531 -6.81396484 11.94726562 C-13.23242267 11.84288025 -19.29903512 12.45973022 -25.625 13.5 C-26.53378906 13.64308594 -27.44257812 13.78617188 -28.37890625 13.93359375 C-30.58711883 14.28225889 -32.79397643 14.63778827 -35 15 C-35.15339844 15.70946777 -35.30679688 16.41893555 -35.46484375 17.14990234 C-35.83072917 18.8421224 -36.19661458 20.53434245 -36.5625 22.2265625 C-37.59960366 28.19498066 -37.59960366 28.19498066 -35.21484375 33.52734375 C-33.69668411 35.134041 -32.1758468 36.73821234 -30.65234375 38.33984375 C-29 41 -29 41 -30 48 C-42.21 48 -54.42 48 -67 48 C-65.1875 37.1875 -65.1875 37.1875 -64.63745117 33.91479492 C-63.02841006 24.28648704 -61.5130341 14.64375928 -60 5 C-52.90223031 4.28167122 -45.80378298 3.57034784 -38.70483398 2.86376953 C-36.29256495 2.62284984 -33.88045237 2.38035793 -31.46850586 2.13623047 C-27.99112777 1.78454517 -24.51321647 1.4386159 -21.03515625 1.09375 C-19.43148949 0.92969666 -19.43148949 0.92969666 -17.79542542 0.7623291 C-11.82851033 0.1769477 -5.99555861 -0.10935811 0 0 Z " fill="#4F8BBB" transform="translate(120,208)"/>
<path d="M0 0 C3.79165363 2.78413512 7.05147623 5.42696716 8.6875 9.9375 C9.81695591 21.67858818 9.81695591 21.67858818 7.6875 25.9375 C14.1225 25.4425 14.1225 25.4425 20.6875 24.9375 C21.1825 29.3925 21.1825 29.3925 21.6875 33.9375 C15.77458493 35.3328545 9.99233658 36.381361 3.953125 37.0078125 C2.75329987 37.13674393 2.75329987 37.13674393 1.52923584 37.26828003 C-0.15113258 37.4472451 -1.83178347 37.62357628 -3.51269531 37.79736328 C-6.04334504 38.06050821 -8.5723877 38.33636071 -11.1015625 38.61328125 C-20.21663521 39.58486727 -29.13571401 40.21664964 -38.3125 39.9375 C-39.19140625 33.00390625 -39.19140625 33.00390625 -39.3125 30.9375 C-37.57293342 29.19793342 -35.1188378 29.56559614 -32.75 29.375 C-31.73808594 29.29121094 -30.72617188 29.20742187 -29.68359375 29.12109375 C-28.90113281 29.06050781 -28.11867188 28.99992187 -27.3125 28.9375 C-27.1670755 26.85541469 -27.1670755 26.85541469 -28.3125 24.875 C-30.21390457 19.28962408 -30.13612759 14.06558299 -27.625 8.6875 C-25.09069312 4.22356296 -22.30568507 0.91091596 -17.625 -1.375 C-11.37167725 -2.67285944 -5.7138363 -3.28356566 0 0 Z " fill="#324B60" transform="translate(98.3125,173.0625)"/>
<path d="M0 0 C2.01887055 1.89651476 3.05673161 3.37736228 4.0625 5.9375 C3.0725 6.2675 2.0825 6.5975 1.0625 6.9375 C-0.25979189 9.58208379 -0.03427194 11.61511301 0 14.5625 C0.00902344 15.56539062 0.01804688 16.56828125 0.02734375 17.6015625 C0.03894531 18.37242188 0.05054688 19.14328125 0.0625 19.9375 C-9.45120384 20.0510588 -18.93164068 19.92533434 -28.4375 19.5 C-29.79705811 19.44114624 -29.79705811 19.44114624 -31.18408203 19.38110352 C-36.80402376 19.11233267 -42.35169391 18.61301923 -47.9375 17.9375 C-47.83050781 17.11765625 -47.72351563 16.2978125 -47.61328125 15.453125 C-47.43345703 13.83664063 -47.43345703 13.83664063 -47.25 12.1875 C-47.12238281 11.12015625 -46.99476562 10.0528125 -46.86328125 8.953125 C-46.94748186 5.53192134 -47.62824515 4.38329177 -49.9375 1.9375 C-36.37285645 -13.322724 -15.44131817 -10.84177659 0 0 Z " fill="#BED3E4" transform="translate(118.9375,85.0625)"/>
<path d="M0 0 C0.66 0 1.32 0 2 0 C3.34331654 1.99330842 4.67594012 3.99384866 6 6 C9.18762365 8.12508244 11.26512223 8.5020163 15 9 C14.814375 10.093125 14.62875 11.18625 14.4375 12.3125 C13.7421932 15.93624133 13.7421932 15.93624133 15 19 C16.3303125 19.12375 16.3303125 19.12375 17.6875 19.25 C21.51604913 20.11684131 23.2388027 21.2388027 26 24 C28.37404898 28.06979825 28.5967249 32.38894395 28 37 C26.54460279 40.67314533 25.00998912 43.42000932 22 46 C18.83884224 44.63016497 18.0072908 44.0109362 16 41 C16.0234375 38.30078125 16.0234375 38.30078125 16.375 35.3125 C16.48585938 34.31863281 16.59671875 33.32476562 16.7109375 32.30078125 C16.80632813 31.54152344 16.90171875 30.78226563 17 30 C16.34 29.67 15.68 29.34 15 29 C14.7525 29.61875 14.505 30.2375 14.25 30.875 C12.69447068 33.51939985 11.92378529 34.07669938 9 35 C6.3087205 35.15467124 3.70062117 35.09002071 1 35 C2.51398455 38.78496138 3.0144396 39.0072198 7 41 C7 43.97 7 46.94 7 50 C3.28306946 50.35399338 1.24878287 50.12439143 -2.125 48.4375 C-5.97098336 45.17677498 -8.47708318 42.03761795 -9.34765625 36.98046875 C-9.49870499 33.54575174 -9.11752647 31.22036213 -7.5 28.1875 C-5.90764694 24.80374974 -5.92783144 23.50186377 -6.125 19.875 C-6.37998838 12.4395387 -3.25777029 6.51554058 0 0 Z " fill="#508AB9" transform="translate(24,187)"/>
<path d="M0 0 C2.43959839 1.48266149 3.76428729 2.81519856 4.80078125 5.48046875 C4.84203125 6.05796875 4.88328125 6.63546875 4.92578125 7.23046875 C2.94578125 8.55046875 0.96578125 9.87046875 -1.07421875 11.23046875 C-1.61046875 10.87984375 -2.14671875 10.52921875 -2.69921875 10.16796875 C-5.80696638 8.94122626 -7.86853578 9.50190444 -11.07421875 10.23046875 C-10.43484375 10.82859375 -9.79546875 11.42671875 -9.13671875 12.04296875 C-6.35387123 14.99447369 -6.09099667 16.75229807 -5.94921875 20.79296875 C-6.07421875 24.23046875 -6.07421875 24.23046875 -7.07421875 26.23046875 C-5.42421875 25.90046875 -3.77421875 25.57046875 -2.07421875 25.23046875 C-1.41421875 23.25046875 -0.75421875 21.27046875 -0.07421875 19.23046875 C6.078125 19.1328125 6.078125 19.1328125 7.92578125 19.23046875 C8.92578125 20.23046875 8.92578125 20.23046875 8.92578125 23.91796875 C8.43823186 27.6313586 7.3192332 29.24312009 4.48828125 31.66796875 C0.86884758 34.44110478 -1.36094695 35.38393113 -5.94921875 35.41796875 C-6.81289062 35.43214844 -7.6765625 35.44632813 -8.56640625 35.4609375 C-11.07421875 35.23046875 -11.07421875 35.23046875 -12.95703125 34.21875 C-16.03270682 32.78305642 -18.70702086 33.11632645 -22.07421875 33.23046875 C-29.55309199 33.48398988 -29.55309199 33.48398988 -33.07421875 31.23046875 C-32.59984375 30.79734375 -32.12546875 30.36421875 -31.63671875 29.91796875 C-28.44431114 26.47016853 -28.91510951 22.68552749 -29.07421875 18.23046875 C-29.40421875 17.24046875 -29.73421875 16.25046875 -30.07421875 15.23046875 C-29.29046875 14.94171875 -28.50671875 14.65296875 -27.69921875 14.35546875 C-24.97750243 13.38134621 -24.97750243 13.38134621 -23.07421875 11.23046875 C-22.66171875 10.13734375 -22.24921875 9.04421875 -21.82421875 7.91796875 C-17.85932762 -1.32699691 -9.24077147 -3.42830881 0 0 Z " fill="#508AB8" transform="translate(176.07421875,158.76953125)"/>
<path d="M0 0 C-0.66 5.61 -1.32 11.22 -2 17 C-0.68 17 0.64 17 2 17 C3.20272819 19.40545638 3.10071472 20.94996953 3.0625 23.625 C3.05347656 24.44226563 3.04445312 25.25953125 3.03515625 26.1015625 C3.02355469 26.72804687 3.01195312 27.35453125 3 28 C4.051875 27.9175 5.10375 27.835 6.1875 27.75 C10.61054645 28.04003583 11.95578635 28.86880882 15 32 C17.52013745 35.48018981 17.36793894 38.80549604 17 43 C15.625 45.75 15.625 45.75 14 48 C13.34 48.99 12.68 49.98 12 51 C8.29397865 52.23534045 5.90246386 52.45528745 2 52 C-1.01092713 50.49453643 -3.07231939 48.76391388 -5 46 C-5.97527959 42.63606773 -6.34233431 39.4894076 -6 36 C-5.34 35.01 -4.68 34.02 -4 33 C-5.65 33.66 -7.3 34.32 -9 35 C-9 32.03 -9 29.06 -9 26 C-9.33 26.33 -9.66 26.66 -10 27 C-11.68608966 27.07205511 -13.37500659 27.08386068 -15.0625 27.0625 C-15.98160156 27.05347656 -16.90070313 27.04445312 -17.84765625 27.03515625 C-18.55792969 27.02355469 -19.26820312 27.01195312 -20 27 C-19.57225063 19.3005114 -17.38651766 12.58455963 -11.99609375 6.87890625 C-4.23050936 0 -4.23050936 0 0 0 Z " fill="#324C60" transform="translate(131,141)"/>
<path d="M0 0 C1.875 -0.36328125 1.875 -0.36328125 4 -0.3125 C4.70125 -0.30863281 5.4025 -0.30476562 6.125 -0.30078125 C8 0 8 0 10 2 C10.01171875 4.3125 10.01171875 4.3125 9.6875 7 C9.58824219 7.886875 9.48898438 8.77375 9.38671875 9.6875 C9 12 9 12 8 14 C8.83402344 13.87238281 9.66804688 13.74476563 10.52734375 13.61328125 C15.86470579 13.14251736 19.50910915 12.86828743 23.90234375 16.203125 C26.406891 19.09937869 28.40380151 21.51217402 30 25 C29.67 27.31 29.34 29.62 29 32 C16.79 32 4.58 32 -8 32 C-7.38125 28.143125 -6.7625 24.28625 -6.125 20.3125 C-5.93437988 19.10505127 -5.74375977 17.89760254 -5.54736328 16.65356445 C-5.38993652 15.691521 -5.23250977 14.72947754 -5.0703125 13.73828125 C-4.91320801 12.75899658 -4.75610352 11.77971191 -4.59423828 10.77075195 C-3.70723329 6.63491808 -2.3458091 3.51871365 0 0 Z " fill="#314A5D" transform="translate(61,224)"/>
<path d="M0 0 C1.2890625 -0.00257813 2.578125 -0.00515625 3.90625 -0.0078125 C6.94960752 0.10465941 9.5894843 0.25025484 12.5 1.125 C15.5 5.15948276 15.5 5.15948276 15.5 8.125 C14.07421875 9.38671875 14.07421875 9.38671875 12.1875 10.8125 C7.98670128 14.33300743 5.92305928 17.77031868 5.22265625 23.32421875 C4.99599378 28.66438665 6.08136339 32.38850331 8.5 37.125 C5.79816945 38.47591528 3.38191794 38.46358058 0.375 38.6875 C-0.72070312 38.77128906 -1.81640625 38.85507813 -2.9453125 38.94140625 C-3.78835937 39.00199219 -4.63140625 39.06257813 -5.5 39.125 C-16.37938595 10.13413732 -16.37938595 10.13413732 -15.5 4.125 C-13.99808356 1.83260122 -12.99605259 1.25601571 -10.35546875 0.55859375 C-6.8734078 0.02985399 -3.52167513 -0.00704335 0 0 Z " fill="#43749B" transform="translate(64.5,164.875)"/>
<path d="M0 0 C4.29 0 8.58 0 13 0 C12.34 2.31 11.68 4.62 11 7 C11.74765625 7.29390625 12.4953125 7.5878125 13.265625 7.890625 C17.72397198 9.92139038 21.12368563 11.50571866 23.65625 15.82421875 C25.6303657 21.44339807 26.75254124 26.24165022 25 32 C24.34 32.66 23.68 33.32 23 34 C18.76384965 32.16762752 14.52801758 30.33452198 10.29248047 28.50073242 C8.85116184 27.87683205 7.40975601 27.25313309 5.96826172 26.62963867 C3.8978829 25.7340894 1.82781741 24.83781939 -0.2421875 23.94140625 C-0.88807831 23.6622084 -1.53396912 23.38301056 -2.19943237 23.09535217 C-6.77225659 21.11387171 -6.77225659 21.11387171 -9 20 C-8.40440894 15.13127946 -6.27522585 11.40671159 -3.9375 7.1875 C-3.56044922 6.49462891 -3.18339844 5.80175781 -2.79492188 5.08789062 C-1.86916148 3.38871015 -0.93537688 1.69390575 0 0 Z " fill="#324A5D" transform="translate(105,219)"/>
<path d="M0 0 C6.25782402 -0.4278854 10.17775979 1.23746719 14.97265625 5.21875 C17.51248323 7.95394829 18.79583551 9.68828778 19.97265625 13.21875 C15.32770767 13.10046792 10.6829716 12.97621726 6.03833008 12.84643555 C4.4582961 12.80312695 2.87821656 12.76144894 1.2980957 12.72143555 C-0.97328423 12.66363417 -3.24443564 12.5999684 -5.515625 12.53515625 C-6.22197586 12.51844376 -6.92832672 12.50173126 -7.65608215 12.48451233 C-10.69382615 12.3927753 -13.12357433 12.18667314 -16.02734375 11.21875 C-14.02790611 6.67815516 -11.03297353 4.04986251 -7.02734375 1.21875 C-4.59982505 0.324401 -2.54422373 0.27452125 0 0 Z " fill="#FBFCFD" transform="translate(93.02734375,91.78125)"/>
<path d="M0 0 C4.10958767 1.45044271 7.43258745 3.51110752 11 6 C10.85851011 7.6045556 10.71164314 9.20863767 10.5625 10.8125 C10.48128906 11.70582031 10.40007812 12.59914062 10.31640625 13.51953125 C10 16 10 16 9 19 C6.1085914 20.1194613 3.32237388 20.10768197 0.25 20.0625 C-0.54921875 20.05347656 -1.3484375 20.04445312 -2.171875 20.03515625 C-2.77515625 20.02355469 -3.3784375 20.01195312 -4 20 C-4.86916887 18.59248779 -5.71985149 17.1735479 -6.5625 15.75 C-7.27599609 14.56664062 -7.27599609 14.56664062 -8.00390625 13.359375 C-9 11 -9 11 -8.90625 8.9375 C-7.7041725 6.3675412 -6.11791287 5.04970586 -3.9375 3.25 C-3.20402344 2.63640625 -2.47054687 2.0228125 -1.71484375 1.390625 C-1.14894531 0.93171875 -0.58304688 0.4728125 0 0 Z " fill="#FB6597" transform="translate(87,179)"/>
<path d="M0 0 C3.88019859 1.25844278 5.9411842 2.42416203 8 6 C8 6.99 8 7.98 8 9 C9.98 8.01 11.96 7.02 14 6 C14.28795434 11.56711726 14.2713987 15.25119544 11 20 C6.18657537 24.71392231 4.20550424 25 -3 25 C-2.505 16.09 -2.505 16.09 -2 7 C-1.34 7 -0.68 7 0 7 C0 4.69 0 2.38 0 0 Z " fill="#4E84AF" transform="translate(132,133)"/>
<path d="M0 0 C1.65 0 3.3 0 5 0 C3.68 0.33 2.36 0.66 1 1 C1.99 3.64 2.98 6.28 4 9 C10.6 9 17.2 9 24 9 C23.54017708 14.45218603 23.07371012 19.63144942 22 25 C17.71 25 13.42 25 9 25 C9.29296875 21.90755208 9.5859375 18.81510417 9.87890625 15.72265625 C9.91886719 14.82417969 9.95882812 13.92570313 10 13 C8.50256881 11.50256881 7.01175761 11.66797307 4.9375 11.4375 C3.638125 11.293125 2.33875 11.14875 1 11 C0.67 11.99 0.34 12.98 0 14 C-0.33 14 -0.66 14 -1 14 C-0.67 9.38 -0.34 4.76 0 0 Z " fill="#4779A1" transform="translate(60,213)"/>
<path d="M0 0 C7.26 0.33 14.52 0.66 22 1 C22 7 22 7 20.25 9.75 C16.9533674 13.0466326 15.22244197 13.86664269 10.5625 14.375 C6.39002679 13.93579229 4.92952192 12.92952192 2 10 C0 7 0 7 0 0 Z " fill="#F2C70E" transform="translate(83,127)"/>
<path d="M0 0 C4.86045979 0.45213579 7.53141261 1.53141261 11 5 C13.37404898 9.06979825 13.5967249 13.38894395 13 18 C11.54460279 21.67314533 10.00998912 24.42000932 7 27 C3.83884224 25.63016497 3.0072908 25.0109362 1 22 C1.05859375 19.3359375 1.05859375 19.3359375 1.4375 16.375 C1.66036502 14.58738794 1.85669162 12.79574174 2 11 C1.67 10.67 1.34 10.34 1 10 C0.76712992 8.31816052 0.58735834 6.6287584 0.4375 4.9375 C0.35371094 4.01839844 0.26992188 3.09929687 0.18359375 2.15234375 C0.09271484 1.08693359 0.09271484 1.08693359 0 0 Z " fill="#ABBECC" transform="translate(39,206)"/>
<path d="M0 0 C1.65 0 3.3 0 5 0 C5.0825 1.051875 5.165 2.10375 5.25 3.1875 C6.0595509 7.30271705 7.11709086 9.02972998 10 12 C13.10953379 13.5547669 15.56266761 13.28644437 19 13 C23.36426478 10.94138454 24.69806222 9.82346667 26.375 5.25 C26.58125 4.1775 26.7875 3.105 27 2 C28.65 2 30.3 2 32 2 C31.59930579 7.81006609 30.92755506 11.43554411 27 16 C22.05009205 19.53564854 16.88363981 19.95189858 11 19 C6.23351519 17.19146866 3.60108278 15.01432719 1 10.625 C-0.02722417 6.90131238 -0.23527963 3.84290067 0 0 Z " fill="#487CA5" transform="translate(78,127)"/>
<path d="M0 0 C2.74300131 1.02474389 3.84164259 1.89997657 6 4 C6.875 6.25 6.875 6.25 7 8 C5.02 9.32 3.04 10.64 1 12 C0.46375 11.649375 -0.0725 11.29875 -0.625 10.9375 C-3.7634242 9.69864834 -5.76212444 10.22572541 -9 11 C-9.99 11.495 -9.99 11.495 -11 12 C-12.54023996 12.06950541 -14.08334988 12.08452357 -15.625 12.0625 C-16.85089844 12.04896484 -16.85089844 12.04896484 -18.1015625 12.03515625 C-19.04128906 12.01775391 -19.04128906 12.01775391 -20 12 C-19.90276381 7.91608019 -19.00447569 5.49667425 -16.1875 2.625 C-11.30411416 -1.20906326 -5.91645725 -0.96695562 0 0 Z " fill="#B1C4D3" transform="translate(174,158)"/>
<path d="M0 0 C0.66 0 1.32 0 2 0 C7 10 7 10 7.875 12.125 C9.05752237 14.47615743 9.05752237 14.47615743 13 16 C13 18.97 13 21.94 13 25 C9.28306946 25.35399338 7.24878287 25.12439143 3.875 23.4375 C0.02901664 20.17677498 -2.47708318 17.03761795 -3.34765625 11.98046875 C-3.55474752 7.27139339 -2.39412398 3.99020664 0 0 Z " fill="#A8BBC9" transform="translate(18,212)"/>
<path d="M0 0 C6.15234375 -0.09765625 6.15234375 -0.09765625 8 0 C9 1 9 1 9 4.6875 C8.51245061 8.40088985 7.39345195 10.01265134 4.5625 12.4375 C0.94306633 15.21063603 -1.2867282 16.15346238 -5.875 16.1875 C-7.17050781 16.20876953 -7.17050781 16.20876953 -8.4921875 16.23046875 C-11.1241288 15.98859252 -12.73980544 15.32983541 -15 14 C-15 13.01 -15 12.02 -15 11 C-11.70349234 9.23114223 -8.92731185 7.9842509 -5.25 7.1875 C-4.1775 6.795625 -3.105 6.40375 -2 6 C-0.46853622 2.99405579 -0.46853622 2.99405579 0 0 Z " fill="#A6B8C6" transform="translate(176,178)"/>
<path d="M0 0 C0.66 0 1.32 0 2 0 C3.34331654 1.99330842 4.67594012 3.99384866 6 6 C9.18762365 8.12508244 11.26512223 8.5020163 15 9 C14.34 10.98 13.68 12.96 13 15 C12.26394531 14.94199219 11.52789062 14.88398438 10.76953125 14.82421875 C4.38768425 14.40992387 4.38768425 14.40992387 -1.0625 17.375 C-1.701875 18.24125 -2.34125 19.1075 -3 20 C-3.66 20.66 -4.32 21.32 -5 22 C-6 21 -6 21 -6.375 18.1875 C-6.33492435 11.77539657 -2.81290735 5.6258147 0 0 Z " fill="#487AA1" transform="translate(24,187)"/>
<path d="M0 0 C11.72038134 -0.45369218 23.34785474 0.88632267 35 2 C29.08408874 9.38990935 29.08408874 9.38990935 24 10 C22.31022874 9.02513197 20.6231652 8.04110259 18.99609375 6.96484375 C14.1395628 4.61736206 8.04266828 5.57414207 3 7 C0 2.25 0 2.25 0 0 Z " fill="#386283" transform="translate(77,166)"/>
<path d="M0 0 C2 3 2 3 1.75 6.375 C1.10626078 9.48640622 0.30944157 12.11922854 -1 15 C-2.258125 15.020625 -3.51625 15.04125 -4.8125 15.0625 C-5.52019531 15.07410156 -6.22789063 15.08570312 -6.95703125 15.09765625 C-9 15 -9 15 -12 14 C-11.54009491 8.66510093 -10.93277889 4.62476672 -8 0 C-4.67212881 -1.1092904 -3.3006216 -1.01557588 0 0 Z " fill="#4A7DA6" transform="translate(71,88)"/>
<path d="M0 0 C3.4375 -0.4375 3.4375 -0.4375 7 0 C11.12532377 4.17420202 11.13658817 9.42103126 12 15 C8.04 15 4.08 15 0 15 C-1.58476785 10.83998439 -2.39630501 7.45843134 -2 3 C-1.34 2.01 -0.68 1.02 0 0 Z " fill="#4A7DA5" transform="translate(120,91)"/>
<path d="M0 0 C4.10958767 1.45044271 7.43258745 3.51110752 11 6 C10.67 7.65 10.34 9.3 10 11 C3.59646678 11.2361959 -1.84629161 10.823321 -8 9 C-8.33 9.66 -8.66 10.32 -9 11 C-8.46324097 7.14896699 -6.88399077 5.68202413 -3.9375 3.25 C-3.20402344 2.63640625 -2.47054687 2.0228125 -1.71484375 1.390625 C-1.14894531 0.93171875 -0.58304688 0.4728125 0 0 Z " fill="#EF5F90" transform="translate(87,179)"/>
<path d="M0 0 C1.32 0.33 2.64 0.66 4 1 C4.83288874 7.25307239 5.03863773 12.76817361 4 19 C-2.09411765 16.85882353 -2.09411765 16.85882353 -4 14 C-5.75243463 7.31884298 -5.75243463 7.31884298 -3.94140625 4.14453125 C-2.5625 2.5 -2.5625 2.5 0 0 Z " fill="#457AA3" transform="translate(51,129)"/>
<path d="M0 0 C3.65316671 1.24976756 4.78065836 1.67098753 7 5 C7.60142845 8.08810379 7.6320624 10.91531939 7 14 C5.21071012 16.4553347 3.67457733 17.37427652 1 19 C0.01 19 -0.98 19 -2 19 C-2 15.04 -2 11.08 -2 7 C-1.34 7 -0.68 7 0 7 C0 4.69 0 2.38 0 0 Z " fill="#4477A0" transform="translate(132,133)"/>
<path d="M0 0 C3.5 0.25 3.5 0.25 5.5 2.25 C5.8125 5.75 5.8125 5.75 5.5 9.25 C2.5 11.25 2.5 11.25 -1.125 10.9375 C-4.5 10.25 -4.5 10.25 -5.5 9.25 C-5.6875 5.8125 -5.6875 5.8125 -5.5 2.25 C-3.5 0.25 -3.5 0.25 0 0 Z " fill="#477CA6" transform="translate(120.5,126.75)"/>
<path d="M0 0 C1.7325 0.1546875 1.7325 0.1546875 3.5 0.3125 C5.65502531 3.54503796 5.96856135 4.56400923 5.5 8.3125 C4.375 10.125 4.375 10.125 2.5 11.3125 C-0.5625 11.625 -0.5625 11.625 -3.5 11.3125 C-5.5 9.3125 -5.5 9.3125 -5.75 5.8125 C-5.40893869 1.0376416 -4.76133169 0.4251189 0 0 Z " fill="#477CA6" transform="translate(67.5,123.6875)"/>
<path d="M0 0 C3.0625 0.3125 3.0625 0.3125 4.9375 1.5 C6.46909584 3.96757108 6.49072025 5.45769831 6.0625 8.3125 C4.875 10.125 4.875 10.125 3.0625 11.3125 C0.20769831 11.74072025 -1.28242892 11.71909584 -3.75 10.1875 C-5.46599028 7.47804166 -5.271228 5.44954316 -4.9375 2.3125 C-2.9375 0.3125 -2.9375 0.3125 0 0 Z " fill="#43769D" transform="translate(34.9375,178.6875)"/>
<path d="M0 0 C-1.3554488 4.0663464 -3.26489579 4.13244789 -7 6 C-9.6257375 8.53196116 -10.09608382 10.52334367 -10.625 14 C-11.07421875 16.10546875 -11.07421875 16.10546875 -12 18 C-14.20996001 19.42343653 -16.32177897 20.27341794 -18.80859375 21.11328125 C-21.20796732 22.08415077 -22.38104314 22.99838061 -24 25 C-25.20049407 28.10007201 -25.20049407 28.10007201 -26 31 C-26.33 31 -26.66 31 -27 31 C-27.30079969 27.16480399 -27.39869006 24.7143197 -25.5 21.3125 C-22.1634798 18.22621881 -17.71950682 15 -13 15 C-13.12375 13.700625 -13.12375 13.700625 -13.25 12.375 C-12.93092448 8.06748045 -11.81951153 6.25328253 -9 3 C-6.17453867 1.31982589 -3.34546723 0 0 0 Z " fill="#415D73" transform="translate(52,156)"/>
<path d="M0 0 C3 0.25 3 0.25 5 2.25 C5.25 5.25 5.25 5.25 5 8.25 C3 10.25 3 10.25 0 10.5 C-3 10.25 -3 10.25 -5 8.25 C-5.25 5.25 -5.25 5.25 -5 2.25 C-3 0.25 -3 0.25 0 0 Z " fill="#407198" transform="translate(137,176.75)"/>
<path d="M0 0 C3.66172475 0.62678171 6.8818995 1.64451846 10.3125 3.0625 C11.19550781 3.42472656 12.07851562 3.78695312 12.98828125 4.16015625 C13.65214844 4.43730469 14.31601563 4.71445313 15 5 C14.67 6.32 14.34 7.64 14 9 C8.55432314 7.97137215 3.88182883 6.75385216 -1 4 C-0.67 2.68 -0.34 1.36 0 0 Z " fill="#35546D" transform="translate(80,150)"/>
<path d="M0 0 C0.495 0.7425 0.99 1.485 1.5 2.25 C4.59875158 5.65862674 7.82766134 7.18726063 12 9 C9.04497399 10.69242399 6.90004978 11.27328801 3.5 11.25 C2.7471875 11.25515625 1.994375 11.2603125 1.21875 11.265625 C-1.2296721 10.97250404 -2.87304054 10.21816769 -5 9 C-4.54625 8.62875 -4.0925 8.2575 -3.625 7.875 C-1.52970606 5.45735315 -0.87986715 3.04569398 0 0 Z " fill="#436E91" transform="translate(148,181)"/>
<path d="M0 0 C2.64 0 5.28 0 8 0 C8.125 2.375 8.125 2.375 8 5 C7.34 5.66 6.68 6.32 6 7 C1.44444444 6.44444444 1.44444444 6.44444444 0 5 C-0.04063832 3.33382885 -0.042721 1.66611905 0 0 Z " fill="#FBFAF2" transform="translate(92,128)"/>
<path d="M0 0 C5 2 5 2 8 4 C7.67 4.66 7.34 5.32 7 6 C6.33613281 5.85820312 5.67226562 5.71640625 4.98828125 5.5703125 C-0.13789306 4.51585627 -0.13789306 4.51585627 -4.77734375 6.26953125 C-6.31451029 8.09821882 -6.31451029 8.09821882 -8 11 C-8.33 10.01 -8.66 9.02 -9 8 C-6.03 5.36 -3.06 2.72 0 0 Z " fill="#D75A86" transform="translate(87,179)"/>
<path d="M0 0 C-2 2 -2 2 -4.4375 3.3125 C-7.36138935 5.23798811 -8.38949845 6.932378 -10 10 C-10.66 10.99 -11.32 11.98 -12 13 C-12.31658501 8.96354118 -12.4210379 6.67666805 -10.25 3.1875 C-6.79010569 -0.17628613 -4.72715181 -1.6882685 0 0 Z " fill="#3F576A" transform="translate(37,174)"/>
<path d="M0 0 C1.67542976 0.28604898 3.34385343 0.61781233 5 1 C4.67 2.32 4.34 3.64 4 5 C2.68 5.33 1.36 5.66 0 6 C-0.38218767 4.34385343 -0.71395102 2.67542976 -1 1 C-0.67 0.67 -0.34 0.34 0 0 Z " fill="#43749B" transform="translate(63,227)"/>
<path d="M0 0 C0.99 0.495 0.99 0.495 2 1 C1.01 1.495 1.01 1.495 0 2 C0 1.34 0 0.68 0 0 Z M-2 3 C-1.67 3.66 -1.34 4.32 -1 5 C-0.34 5 0.32 5 1 5 C-1.2 11.6 -1.2 11.6 -4 13 C-3.85950482 11.52031676 -3.71245174 10.04125484 -3.5625 8.5625 C-3.48128906 7.73878906 -3.40007813 6.91507813 -3.31640625 6.06640625 C-3 4 -3 4 -2 3 Z " fill="#3B556A" transform="translate(61,224)"/>
<path d="M0 0 C3 0 3 0 4.75 1.5625 C6.49813904 4.97137113 5.77495119 7.33659437 5 11 C3.68 10.67 2.36 10.34 1 10 C1.66 9.67 2.32 9.34 3 9 C1.78955868 4.39257135 1.78955868 4.39257135 0 0 Z " fill="#3D5466" transform="translate(85,245)"/>
<path d="M0 0 C0.33 0 0.66 0 1 0 C0.25 6.75 0.25 6.75 -2 9 C-4.31 8.01 -6.62 7.02 -9 6 C-6 5 -6 5 -3.9375 4.6875 C-1.79878028 4.15861061 -1.79878028 4.15861061 -0.75 1.9375 C-0.37875 0.9784375 -0.37875 0.9784375 0 0 Z " fill="#3C5263" transform="translate(130,244)"/>
<path d="M0 0 C2.9719385 1.12451727 5.33440687 2.22293791 8 4 C8 4.66 8 5.32 8 6 C4.08597051 4.73058503 2.20927127 3.48832306 0 0 Z " fill="#578AB4" transform="translate(42,147)"/>
</svg>
