<?xml version="1.0" encoding="UTF-8"?>
<svg version="1.1" xmlns="http://www.w3.org/2000/svg" width="192" height="256">
<path d="M0 0 C9.5691208 7.76950315 16.18307143 16.36095995 18.16015625 28.75390625 C18.29163505 30.31587442 18.41651302 31.87841072 18.53515625 33.44140625 C18.83606292 36.7179455 18.99132495 37.5481431 21.16015625 40.19140625 C24.17323888 44.05191837 24.38820263 47.93550702 24.16015625 52.75390625 C23.52340113 54.91582334 22.7157973 56.88009239 21.79296875 58.93359375 C20.83417503 61.69160531 21.49872906 63.97591207 22.16015625 66.75390625 C21.83015625 67.41390625 21.50015625 68.07390625 21.16015625 68.75390625 C19.67515625 69.24890625 19.67515625 69.24890625 18.16015625 69.75390625 C20.44690442 73.53078951 22.64226505 77.15424275 25.53515625 80.50390625 C27.16015625 82.75390625 27.16015625 82.75390625 26.97265625 85.00390625 C26.16015625 86.75390625 26.16015625 86.75390625 25.16015625 87.75390625 C23.30728123 87.82617127 21.45181747 87.83771845 19.59765625 87.81640625 C18.58574219 87.80738281 17.57382813 87.79835938 16.53125 87.7890625 C15.74878906 87.77746094 14.96632813 87.76585937 14.16015625 87.75390625 C14.17062988 88.48915527 14.18110352 89.2244043 14.19189453 89.98193359 C14.23387423 93.36422201 14.25961455 96.74645532 14.28515625 100.12890625 C14.30191406 101.28519531 14.31867188 102.44148438 14.3359375 103.6328125 C14.37144467 109.91758177 14.04923595 115.64898426 12.49560547 121.75244141 C11.96607967 123.95282912 11.96607967 123.95282912 13.16015625 126.75390625 C9.9470415 132.49161117 9.9470415 132.49161117 6.16015625 133.75390625 C1.50687985 138.95462693 1.36651163 143.96894141 1.16015625 150.75390625 C1.09699219 152.01976562 1.03382812 153.285625 0.96875 154.58984375 C0.92878906 155.90210938 0.88882813 157.214375 0.84765625 158.56640625 C0.81027344 159.78972656 0.77289063 161.01304687 0.734375 162.2734375 C1.24483317 166.44608181 2.52085415 168.51969885 5.16015625 171.75390625 C6.23265625 172.41390625 7.30515625 173.07390625 8.41015625 173.75390625 C9.31765625 174.41390625 10.22515625 175.07390625 11.16015625 175.75390625 C11.16015625 177.73390625 11.16015625 179.71390625 11.16015625 181.75390625 C1.26015625 181.75390625 -8.63984375 181.75390625 -18.83984375 181.75390625 C-19.16984375 169.87390625 -19.49984375 157.99390625 -19.83984375 145.75390625 C-24.45984375 145.75390625 -29.07984375 145.75390625 -33.83984375 145.75390625 C-34.16984375 157.63390625 -34.49984375 169.51390625 -34.83984375 181.75390625 C-44.73984375 181.75390625 -54.63984375 181.75390625 -64.83984375 181.75390625 C-64.83984375 175.75390625 -64.83984375 175.75390625 -63.16015625 173.99609375 C-62.43570313 173.54492188 -61.71125 173.09375 -60.96484375 172.62890625 C-57.82479119 170.63682989 -56.03361425 169.3414031 -54.83984375 165.75390625 C-54.49280279 160.75416354 -54.68690884 155.75997574 -54.83984375 150.75390625 C-54.85789062 149.77679688 -54.8759375 148.7996875 -54.89453125 147.79296875 C-55.20013755 141.95049541 -56.62887411 137.92782924 -60.83984375 133.75390625 C-62.15731699 133.05642042 -63.48898568 132.38430668 -64.83984375 131.75390625 C-66.65234375 129.44140625 -66.65234375 129.44140625 -67.83984375 126.75390625 C-67.52388867 125.08385796 -67.18804416 123.41753042 -66.83984375 121.75390625 C-67.154375 120.62339844 -67.46890625 119.49289063 -67.79296875 118.328125 C-69.24156409 112.87023574 -69.09466176 107.49110217 -69.02734375 101.87890625 C-69.02669922 100.83476562 -69.02605469 99.790625 -69.02539062 98.71484375 C-68.98062746 91.03547366 -68.98062746 91.03547366 -67.83984375 88.75390625 C-68.98324219 88.69332031 -70.12664062 88.63273437 -71.3046875 88.5703125 C-72.7955868 88.48592197 -74.2864715 88.40127323 -75.77734375 88.31640625 C-76.53208984 88.27708984 -77.28683594 88.23777344 -78.06445312 88.19726562 C-83.7265625 87.8671875 -83.7265625 87.8671875 -84.83984375 86.75390625 C-85.15266009 83.81442572 -85.13674022 82.23329872 -83.5625 79.69140625 C-83.01464844 79.05203125 -82.46679688 78.41265625 -81.90234375 77.75390625 C-78.59690193 73.74267222 -78.59690193 73.74267222 -77.83984375 68.75390625 C-79.66037729 65.6064201 -79.66037729 65.6064201 -81.83984375 62.75390625 C-83.36130597 58.18951958 -83.35817221 54.2479118 -81.77734375 49.69140625 C-80.6525828 46.16715527 -81.15669156 44.37461285 -81.83984375 40.75390625 C-82.82466258 27.20194282 -78.71662024 17.20020585 -70.1796875 6.71484375 C-53.04110224 -11.67976076 -20.2751471 -14.68200308 0 0 Z " fill="#BD7858" transform="translate(126.83984375,74.24609375)"/>
<path d="M0 0 C0.103125 0.639375 0.20625 1.27875 0.3125 1.9375 C0.539375 2.618125 0.76625 3.29875 1 4 C1.99 4.33 2.98 4.66 4 5 C5.24609375 6.671875 5.24609375 6.671875 6.4375 8.75 C7.96845797 11.3558859 9.3812624 13.44146173 11.375 15.75 C13 18 13 18 12.8125 20.25 C12 22 12 22 11 23 C9.14712498 23.07226502 7.29166122 23.0838122 5.4375 23.0625 C4.42558594 23.05347656 3.41367188 23.04445312 2.37109375 23.03515625 C1.58863281 23.02355469 0.80617188 23.01195312 0 23 C0.01047363 23.73524902 0.02094727 24.47049805 0.03173828 25.22802734 C0.07371798 28.61031576 0.0994583 31.99254907 0.125 35.375 C0.14175781 36.53128906 0.15851563 37.68757813 0.17578125 38.87890625 C0.21128842 45.16367552 -0.1109203 50.89507801 -1.66455078 56.99853516 C-2.19407658 59.19892287 -2.19407658 59.19892287 -1 62 C-4.21311475 67.73770492 -4.21311475 67.73770492 -8 69 C-12.6532764 74.20072068 -12.79364462 79.21503516 -13 86 C-13.06316406 87.26585937 -13.12632813 88.53171875 -13.19140625 89.8359375 C-13.23136719 91.14820313 -13.27132812 92.46046875 -13.3125 93.8125 C-13.36857422 95.64748047 -13.36857422 95.64748047 -13.42578125 97.51953125 C-12.91532308 101.69217556 -11.6393021 103.7657926 -9 107 C-7.9275 107.66 -6.855 108.32 -5.75 109 C-4.8425 109.66 -3.935 110.32 -3 111 C-3 112.98 -3 114.96 -3 117 C-12.9 117 -22.8 117 -33 117 C-33.33 105.12 -33.66 93.24 -34 81 C-38.62 81 -43.24 81 -48 81 C-48.33 92.88 -48.66 104.76 -49 117 C-58.9 117 -68.8 117 -79 117 C-79 111 -79 111 -77.3203125 109.2421875 C-76.59585938 108.79101562 -75.87140625 108.33984375 -75.125 107.875 C-71.98494744 105.88292364 -70.1937705 104.58749685 -69 101 C-68.65295904 96.00025729 -68.84706509 91.00606949 -69 86 C-69.01804687 85.02289063 -69.03609375 84.04578125 -69.0546875 83.0390625 C-69.3602938 77.19658916 -70.78903036 73.17392299 -75 69 C-76.31747324 68.30251417 -77.64914193 67.63040043 -79 67 C-80.8125 64.6875 -80.8125 64.6875 -82 62 C-81.68404492 60.32995171 -81.34820041 58.66362417 -81 57 C-81.31453125 55.86949219 -81.6290625 54.73898438 -81.953125 53.57421875 C-83.40172034 48.11632949 -83.25481801 42.73719592 -83.1875 37.125 C-83.18685547 36.08085937 -83.18621094 35.03671875 -83.18554688 33.9609375 C-83.14078371 26.28156741 -83.14078371 26.28156741 -82 24 C-83.14339844 23.93941406 -84.28679687 23.87882812 -85.46484375 23.81640625 C-86.95574305 23.73201572 -88.44662775 23.64736698 -89.9375 23.5625 C-90.69224609 23.52318359 -91.44699219 23.48386719 -92.22460938 23.44335938 C-97.88671875 23.11328125 -97.88671875 23.11328125 -99 22 C-99.4001788 18.78189546 -99.20310573 17.3259018 -97.46875 14.54296875 C-96.8190625 13.76566406 -96.169375 12.98835937 -95.5 12.1875 C-94.8503125 11.39730469 -94.200625 10.60710937 -93.53125 9.79296875 C-93.0259375 9.20128906 -92.520625 8.60960937 -92 8 C-91.01 9.485 -91.01 9.485 -90 11 C-87.41619823 11.25030977 -87.41619823 11.25030977 -85 11 C-84.67 10.01 -84.34 9.02 -84 8 C-81.71484375 7.73828125 -81.71484375 7.73828125 -79 8 C-77.19140625 9.79296875 -77.19140625 9.79296875 -75.5625 12.1875 C-71.90680818 17.25290304 -68.21044002 20.52637332 -63 24 C-62.8828125 25.953125 -62.8828125 25.953125 -63.125 28.25 C-63.23362765 32.0097237 -63.05025745 32.91676109 -61 36.3125 C-55.46507025 41.80156017 -50.33904206 43.26647021 -42.5625 43.5 C-34.76818101 43.27486529 -28.96533172 42.11359831 -23.5 36.375 C-21.12515755 32.61483278 -21.06433039 31.19945096 -21.5 26.8125 C-21.57429553 21.61856671 -21.57429553 21.61856671 -19.17578125 19.03515625 C-17.57999956 17.91415259 -15.96449184 16.82078994 -14.33203125 15.75390625 C-10.19879506 12.64532493 -7.56720423 7.86134278 -6.5625 2.79296875 C-6.2840625 1.90544922 -6.2840625 1.90544922 -6 1 C-3 0 -3 0 0 0 Z " fill="#3BB675" transform="translate(141,139)"/>
<path d="M0 0 C9.70556337 7.88028563 15.95101133 16.30236216 18.16015625 28.75390625 C18.29433215 31.44667769 18.25655245 34.05481257 18.16015625 36.75390625 C15.85015625 36.09390625 13.54015625 35.43390625 11.16015625 34.75390625 C11.08667969 36.01847656 11.08667969 36.01847656 11.01171875 37.30859375 C10.93695313 38.40429688 10.8621875 39.5 10.78515625 40.62890625 C10.71554688 41.71945313 10.6459375 42.81 10.57421875 43.93359375 C10.16015625 46.75390625 10.16015625 46.75390625 8.16015625 48.75390625 C4.53515625 48.37890625 4.53515625 48.37890625 1.16015625 47.75390625 C1.16015625 44.12390625 1.16015625 40.49390625 1.16015625 36.75390625 C-0.78890625 36.81578125 -0.78890625 36.81578125 -2.77734375 36.87890625 C-7.67575677 36.89445677 -12.12161186 36.00317805 -16.83984375 34.75390625 C-16.83984375 35.74390625 -16.83984375 36.73390625 -16.83984375 37.75390625 C-12.21984375 37.75390625 -7.59984375 37.75390625 -2.83984375 37.75390625 C-2.83984375 39.07390625 -2.83984375 40.39390625 -2.83984375 41.75390625 C-28.49459988 42.08660482 -28.49459988 42.08660482 -37.51171875 34.3125 C-38.66824069 33.17222135 -39.76299237 31.96970619 -40.83984375 30.75390625 C-41.4121875 31.04007813 -41.98453125 31.32625 -42.57421875 31.62109375 C-45.99609375 33.33203125 -49.41796875 35.04296875 -52.83984375 36.75390625 C-49.20984375 36.42390625 -45.57984375 36.09390625 -41.83984375 35.75390625 C-41.83984375 37.07390625 -41.83984375 38.39390625 -41.83984375 39.75390625 C-47.77984375 41.07390625 -53.71984375 42.39390625 -59.83984375 43.75390625 C-59.83984375 42.10390625 -59.83984375 40.45390625 -59.83984375 38.75390625 C-60.82984375 38.75390625 -61.81984375 38.75390625 -62.83984375 38.75390625 C-62.68386719 39.32238281 -62.52789062 39.89085937 -62.3671875 40.4765625 C-61.05721306 45.67308361 -60.72370544 49.5080562 -61.83984375 54.75390625 C-65.21484375 54.87890625 -65.21484375 54.87890625 -68.83984375 54.75390625 C-71.15279195 52.44095805 -71.3356535 51.2748575 -71.96484375 48.12890625 C-72.13242188 47.31164062 -72.3 46.494375 -72.47265625 45.65234375 C-72.59382813 45.02585938 -72.715 44.399375 -72.83984375 43.75390625 C-75.84014433 43.40764034 -75.84014433 43.40764034 -77.40234375 45.25390625 C-77.87671875 45.74890625 -78.35109375 46.24390625 -78.83984375 46.75390625 C-79.49984375 46.75390625 -80.15984375 46.75390625 -80.83984375 46.75390625 C-83.41363077 34.8501413 -81.88948034 24.44311102 -75.58984375 14.06640625 C-68.00692396 2.82658777 -57.5216492 -5.17288774 -43.99121094 -7.93261719 C-28.59324093 -10.17626148 -12.90167442 -9.34259182 0 0 Z " fill="#404347" transform="translate(126.83984375,74.24609375)"/>
<path d="M0 0 C0 2.31 0 4.62 0 7 C18.48 7 36.96 7 56 7 C56.33 4.69 56.66 2.38 57 0 C58.98 0.66 60.96 1.32 63 2 C62.47599609 2.67482422 62.47599609 2.67482422 61.94140625 3.36328125 C57.81708471 9.19341283 57.13996476 13.96677099 57 21 C56.9071875 22.89492187 56.9071875 22.89492187 56.8125 24.828125 C56.45497173 34.11299247 56.45497173 34.11299247 61 42 C62.0725 42.66 63.145 43.32 64.25 44 C65.1575 44.66 66.065 45.32 67 46 C67 47.98 67 49.96 67 52 C57.1 52 47.2 52 37 52 C36.67 40.12 36.34 28.24 36 16 C31.38 16 26.76 16 22 16 C21.67 27.88 21.34 39.76 21 52 C11.1 52 1.2 52 -9 52 C-9 46 -9 46 -7.3203125 44.2421875 C-6.59585938 43.79101562 -5.87140625 43.33984375 -5.125 42.875 C-1.98494744 40.88292364 -0.1937705 39.58749685 1 36 C1.34706439 30.99991985 1.14815008 26.00645096 1 21 C0.99355469 20.04609375 0.98710938 19.0921875 0.98046875 18.109375 C0.69648852 11.42006288 -1.89578004 7.1961684 -6 2 C-3 0 -3 0 0 0 Z " fill="#6467BD" transform="translate(71,204)"/>
<path d="M0 0 C3.16641364 2.63124514 5.15141847 4.3292554 6.46875 8.28125 C5.87707031 8.14847656 5.28539062 8.01570313 4.67578125 7.87890625 C3.88558594 7.70230469 3.09539062 7.52570313 2.28125 7.34375 C1.50394531 7.16972656 0.72664063 6.99570313 -0.07421875 6.81640625 C-0.88503906 6.63980469 -1.69585937 6.46320313 -2.53125 6.28125 C-3.3061377 6.10940186 -4.08102539 5.93755371 -4.87939453 5.76049805 C-25.00357896 2.12361957 -47.48787954 6.00302396 -65.53125 15.28125 C-65.20697116 9.93064909 -62.38409191 6.71695351 -58.53125 3.28125 C-42.98165739 -7.47806488 -16.3830993 -11.12432669 0 0 Z " fill="#6E9DB8" transform="translate(124.53125,87.71875)"/>
<path d="M0 0 C19.14 0 38.28 0 58 0 C57.67 3.3 57.34 6.6 57 10 C38.52 10 20.04 10 1 10 C0.67 6.7 0.34 3.4 0 0 Z " fill="#3B3C3F" transform="translate(70,201)"/>
<path d="M0 0 C3.06627706 -0.21665549 6.11727238 -0.37459318 9.1875 -0.5 C10.05181641 -0.56703125 10.91613281 -0.6340625 11.80664062 -0.703125 C14.42376535 -0.78334338 16.4868787 -0.75115122 19 0 C20.76661711 1.90810696 21.81902516 3.71385607 22.92773438 6.06005859 C24.00635885 8.37459019 24.00635885 8.37459019 27.3125 10.125 C28.6428125 11.053125 28.6428125 11.053125 30 12 C30 13.98 30 15.96 30 18 C20.1 18 10.2 18 0 18 C0 12.06 0 6.12 0 0 Z " fill="#B1C4D4" transform="translate(108,238)"/>
<path d="M0 0 C6.27 0 12.54 0 19 0 C19 5.94 19 11.88 19 18 C9.1 18 -0.8 18 -11 18 C-11 12 -11 12 -9.35546875 10.3125 C-8.64003906 9.879375 -7.92460938 9.44625 -7.1875 9 C-2.77665818 6.3004684 -2.65094933 5.30189867 0 0 Z " fill="#B2C5D4" transform="translate(73,238)"/>
<path d="M0 0 C0.43641149 2.98214518 0.48617869 5.16269225 -1.0546875 7.81640625 C-5.35749635 13.20073191 -9.99576504 16.47653532 -16.8984375 17.37890625 C-23.42567032 17.63374783 -28.72251786 17.02261416 -34 13 C-36.3126055 10.86108804 -38.41660418 8.73495641 -40 6 C-40 4.68 -40 3.36 -40 2 C-39.28231445 2.16081055 -38.56462891 2.32162109 -37.82519531 2.48730469 C-33.1524805 3.33527402 -28.48774423 3.22591998 -23.75 3.25 C-22.25146484 3.2809375 -22.25146484 3.2809375 -20.72265625 3.3125 C-14.94626826 3.34270334 -10.23358218 2.7889466 -4.84863281 0.64746094 C-3 0 -3 0 0 0 Z " fill="#9B6449" transform="translate(119,161)"/>
<path d="M0 0 C0.103125 0.639375 0.20625 1.27875 0.3125 1.9375 C0.6528125 2.9584375 0.6528125 2.9584375 1 4 C1.99 4.33 2.98 4.66 4 5 C5.24609375 6.671875 5.24609375 6.671875 6.4375 8.75 C7.96845797 11.3558859 9.3812624 13.44146173 11.375 15.75 C13 18 13 18 12.8125 20.25 C12 22 12 22 11 23 C9.14712498 23.07226502 7.29166122 23.0838122 5.4375 23.0625 C4.42558594 23.05347656 3.41367188 23.04445312 2.37109375 23.03515625 C1.19740234 23.01775391 1.19740234 23.01775391 0 23 C-0.33 23.99 -0.66 24.98 -1 26 C-1.4125 25.54625 -1.825 25.0925 -2.25 24.625 C-5.04616679 22.02855941 -7.03355541 21.06302899 -10.875 20.8125 C-13.97963868 20.99877832 -16.9463702 21.41835623 -20 22 C-17.95579705 19.35010729 -15.92998236 16.93348324 -13.5 14.625 C-10.1639206 11.12211663 -7.57193199 7.41482395 -6.4375 2.625 C-6.293125 2.08875 -6.14875 1.5525 -6 1 C-3 0 -3 0 0 0 Z " fill="#373A3C" transform="translate(141,139)"/>
<path d="M0 0 C0.66 0.99 1.32 1.98 2 3 C4.58380177 3.25030977 4.58380177 3.25030977 7 3 C7.33 2.01 7.66 1.02 8 0 C10.26953125 -0.26953125 10.26953125 -0.26953125 13 0 C14.94921875 1.86328125 14.94921875 1.86328125 16.6875 4.3125 C17.55955078 5.51326172 17.55955078 5.51326172 18.44921875 6.73828125 C19.6457681 8.48337464 20.8263035 10.23945525 22 12 C12.72883723 15.36405042 3.73668526 15.57666017 -6 15 C-7 14 -7 14 -7.28125 11.73828125 C-6.92446475 8.2645804 -5.72124852 6.8450652 -3.5 4.1875 C-2.8503125 3.39730469 -2.200625 2.60710937 -1.53125 1.79296875 C-1.0259375 1.20128906 -0.520625 0.60960937 0 0 Z " fill="#3A3B3E" transform="translate(49,147)"/>
<path d="M0 0 C0.391875 0.53625 0.78375 1.0725 1.1875 1.625 C1.785625 2.40875 2.38375 3.1925 3 4 C4.0828125 5.485 4.0828125 5.485 5.1875 7 C8.97856987 11.41917612 13.10489585 13.57796166 18.8671875 14.41796875 C26.078941 14.75745333 31.2730517 13.45024008 37 9 C39.64223285 6.22226803 41.446421 3.49555274 43 0 C43.33 0 43.66 0 44 0 C44.42064893 6.09940955 44.08964656 9.13663653 40 14 C33.40289033 20.24989337 26.36623103 20.45394312 17.63671875 20.30859375 C11.06024254 19.7505469 7.12026733 17.40075624 2.5 12.8125 C-0.39218179 9.21681454 -0.52656429 6.22409551 -0.2109375 1.72265625 C-0.14132813 1.15417969 -0.07171875 0.58570313 0 0 Z " fill="#D8D9D8" transform="translate(77,163)"/>
<path d="M0 0 C5.22432197 1.84387834 9.38500118 3.83483703 12 9 C13.73022759 15.47233282 13.1694785 20.16815956 10 26 C9.34 26 8.68 26 8 26 C7.67 24.35 7.34 22.7 7 21 C5.02 21.33 3.04 21.66 1 22 C0.67 22.99 0.34 23.98 0 25 C-0.66 25 -1.32 25 -2 25 C-2.19401633 23.18818595 -2.38004375 21.37551468 -2.5625 19.5625 C-2.66691406 18.55316406 -2.77132812 17.54382813 -2.87890625 16.50390625 C-2.93884766 15.26447266 -2.93884766 15.26447266 -3 14 C-2.67 13.67 -2.34 13.34 -2 13 C-1.79111292 11.00396794 -1.63224523 9.00257059 -1.5 7 C-1.11111111 1.11111111 -1.11111111 1.11111111 0 0 Z " fill="#B47557" transform="translate(138,108)"/>
<path d="M0 0 C3.14958831 3.42346555 3.56179109 6.44262737 4 11 C6.31 11.66 8.62 12.32 11 13 C11 13.33 11 13.66 11 14 C9.35 14 7.7 14 6 14 C6.33 17.3 6.66 20.6 7 24 C6.34 24 5.68 24 5 24 C4.67 23.34 4.34 22.68 4 22 C2.35 22 0.7 22 -1 22 C-1.99 24.475 -1.99 24.475 -3 27 C-7.23850595 23.18534465 -8.79534357 20.25122078 -9.3125 14.5625 C-8.82722667 9.03038401 -7.0140738 5.6610763 -2.8125 2.125 C-1.884375 1.42375 -0.95625 0.7225 0 0 Z " fill="#B37455" transform="translate(53,116)"/>
<path d="M0 0 C0.72015289 -0.0033284 1.44030579 -0.0066568 2.18228149 -0.01008606 C3.70712647 -0.01515175 5.23198255 -0.0174945 6.75683594 -0.01733398 C9.08547351 -0.01951617 11.41363405 -0.03766321 13.7421875 -0.05664062 C15.22395671 -0.05957552 16.70572818 -0.06155967 18.1875 -0.0625 C19.2298732 -0.07327827 19.2298732 -0.07327827 20.29330444 -0.08427429 C23.94256751 -0.06710506 26.62312734 0.16723931 29.7265625 2.16796875 C29.7265625 2.82796875 29.7265625 3.48796875 29.7265625 4.16796875 C19.19441555 10.05639637 2.96387574 7.67531714 -8.2734375 5.16796875 C-8.9334375 4.83796875 -9.5934375 4.50796875 -10.2734375 4.16796875 C-9.9434375 3.17796875 -9.6134375 2.18796875 -9.2734375 1.16796875 C-6.30004184 -0.31872908 -3.26051035 0.00519107 0 0 Z " fill="#25A15F" transform="translate(89.2734375,182.83203125)"/>
<path d="M0 0 C2.98106539 2.59887752 3.89388856 4.13342323 4.375 8.0625 C4.0066092 10.94822797 3.68261422 12.6443401 2 15 C-0.96157072 17.04246256 -3.45225073 17.60571329 -7 17 C-9.81563294 14.99777213 -11.63653223 13.4684098 -12.48828125 10.02734375 C-12.73053432 6.32433253 -12.29748219 4.36058448 -9.9375 1.5 C-6.24601675 -0.38501272 -4.09135771 -0.6694949 0 0 Z " fill="#F2EFED" transform="translate(85,124)"/>
<path d="M0 0 C2.88589482 0.45964857 4.11824871 0.9799521 5.9375 3.30859375 C6.83801815 6.02780541 7.16590914 8.45069402 6.9375 11.30859375 C5.04168749 14.87272126 3.81903897 16.00849538 0 17.30859375 C-3.63491294 17.30859375 -5.21114833 16.50820789 -8.0625 14.30859375 C-9.66188696 11.10981983 -9.41998026 7.78715162 -9.0625 4.30859375 C-7.27601123 -0.15762819 -4.61493905 -0.27995035 0 0 Z " fill="#F2EEEC" transform="translate(116.0625,120.69140625)"/>
<path d="M0 0 C6.27 0 12.54 0 19 0 C19 3.3 19 6.6 19 10 C12.73 10 6.46 10 0 10 C0 6.7 0 3.4 0 0 Z " fill="#B97656" transform="translate(108,228)"/>
<path d="M0 0 C6.27 0 12.54 0 19 0 C19 3.3 19 6.6 19 10 C12.73 10 6.46 10 0 10 C0 6.7 0 3.4 0 0 Z " fill="#B97656" transform="translate(73,228)"/>
<path d="M0 0 C9.9 0 19.8 0 30 0 C30 1.98 30 3.96 30 6 C20.1 6 10.2 6 0 6 C0 4.02 0 2.04 0 0 Z " fill="#D5D6D6" transform="translate(108,250)"/>
<path d="M0 0 C9.9 0 19.8 0 30 0 C30 1.98 30 3.96 30 6 C20.1 6 10.2 6 0 6 C0 4.02 0 2.04 0 0 Z " fill="#D5D6D6" transform="translate(62,250)"/>
<path d="M0 0 C1.27351308 2.54702616 0.80191925 3.4282945 0.0625 6.125 C-0.13214844 6.84945312 -0.32679687 7.57390625 -0.52734375 8.3203125 C-0.76130859 9.15175781 -0.76130859 9.15175781 -1 10 C0.2684375 10.1546875 0.2684375 10.1546875 1.5625 10.3125 C5.41442701 11.0828854 8.44075031 12.36274514 12 14 C10.87548273 16.9719385 9.77706209 19.33440687 8 22 C2.25 20.125 2.25 20.125 0 19 C0 18.01 0 17.02 0 16 C-2.64 16 -5.28 16 -8 16 C-7.86660043 8.52962434 -5.25345294 5.15743683 0 0 Z " fill="#24A15F" transform="translate(128,185)"/>
<path d="M0 0 C3.95963389 1.27273947 5.37729554 3.68299713 7.25 7.1796875 C8.21958411 9.53294894 8.3045585 11.48739234 8 14 C5.36 14 2.72 14 0 14 C0 14.99 0 15.98 0 17 C-2.3125 18.75 -2.3125 18.75 -5 20 C-8.75376152 18.74874616 -9.24073289 17.4347596 -11 14 C-11 13.34 -11 12.68 -11 12 C-9.56570999 11.32645501 -8.12742943 10.66140299 -6.6875 10 C-5.48673828 9.443125 -5.48673828 9.443125 -4.26171875 8.875 C-2 8 -2 8 1 8 C0.67 5.36 0.34 2.72 0 0 Z " fill="#24A05E" transform="translate(70,187)"/>
<path d="M0 0 C2.0625 1.5625 2.0625 1.5625 3 4 C2.93375803 7.77579201 2.78061285 10.07482922 0.3125 13 C-2.87167993 14.37694267 -4.70924801 13.980224 -8 13 C-9.875 11.875 -9.875 11.875 -11 10 C-11.36248449 6.61681143 -11.58433618 4.13215135 -10 1.0625 C-6.75482811 -0.66149757 -3.58008387 -0.65498416 0 0 Z " fill="#A96140" transform="translate(104,146)"/>
<path d="M0 0 C0.103125 0.639375 0.20625 1.27875 0.3125 1.9375 C0.539375 2.618125 0.76625 3.29875 1 4 C1.99 4.33 2.98 4.66 4 5 C5.24609375 6.671875 5.24609375 6.671875 6.4375 8.75 C7.96845797 11.3558859 9.3812624 13.44146173 11.375 15.75 C13 18 13 18 12.9375 20.25 C12 22 12 22 9 23 C8.87625 22.4225 8.7525 21.845 8.625 21.25 C7.47684314 17.11663529 5.92791628 14.66338321 2.5625 12 C-0.02609659 9.86440781 -2.23829713 7.90162825 -4 5 C-4 4.34 -4 3.68 -4 3 C-4.66 3 -5.32 3 -6 3 C-6 2.34 -6 1.68 -6 1 C-3 0 -3 0 0 0 Z " fill="#4B4D52" transform="translate(141,139)"/>
<path d="M0 0 C3.57317299 0.29386843 5.69788293 0.95713442 8.65234375 3.046875 C9.12671875 3.76875 9.60109375 4.490625 10.08984375 5.234375 C9.75984375 6.554375 9.42984375 7.874375 9.08984375 9.234375 C4.46984375 9.234375 -0.15015625 9.234375 -4.91015625 9.234375 C-5.91015625 5.234375 -5.91015625 5.234375 -4.47265625 2.421875 C-1.91015625 0.234375 -1.91015625 0.234375 0 0 Z " fill="#5D60B0" transform="translate(97.91015625,210.765625)"/>
<path d="M0 0 C2.27029534 0.39143023 3.83408198 0.88741278 5.75 2.1875 C7.61326 4.88922699 7.392614 6.79365235 7 10 C5.5 12.375 5.5 12.375 4 14 C1.625 13.6875 1.625 13.6875 -1 13 C-3.32579101 9.51131349 -3.41865457 8.10281481 -3 4 C-1.5 1.625 -1.5 1.625 0 0 Z " fill="#444649" transform="translate(111,122)"/>
<path d="M0 0 C1.98 0 3.96 0 6 0 C10.07877462 6.89715536 10.07877462 6.89715536 9.75 11.5 C9.5025 12.325 9.255 13.15 9 14 C7.02 14 5.04 14 3 14 C-1.07877462 5.96498906 -1.07877462 5.96498906 -0.75 1.9375 C-0.5025 1.298125 -0.255 0.65875 0 0 Z " fill="#E1995C" transform="translate(139,129)"/>
<path d="M0 0 C2.375 0.3125 2.375 0.3125 5 1 C7.45811625 4.68717438 7.31118164 6.64345704 7 11 C6.01 12.485 6.01 12.485 5 14 C0.25 13.25 0.25 13.25 -2 11 C-2.46376812 3.69565217 -2.46376812 3.69565217 0 0 Z " fill="#404245" transform="translate(80,125)"/>
<path d="M0 0 C0.33 0 0.66 0 1 0 C1.061875 0.886875 1.12375 1.77375 1.1875 2.6875 C1.72854331 6.18068777 1.72854331 6.18068777 4.5625 8.4375 C7 11 7 11 7.625 14.625 C7 18 7 18 4.5625 19.75 C3.716875 20.1625 2.87125 20.575 2 21 C1.67 21.99 1.34 22.98 1 24 C0.34 24 -0.32 24 -1 24 C-1.19401633 22.18818595 -1.38004375 20.37551468 -1.5625 18.5625 C-1.66691406 17.55316406 -1.77132812 16.54382813 -1.87890625 15.50390625 C-1.93884766 14.26447266 -1.93884766 14.26447266 -2 13 C-1.67 12.67 -1.34 12.34 -1 12 C-0.76572222 9.98405418 -0.58663876 7.961526 -0.4375 5.9375 C-0.35371094 4.83277344 -0.26992187 3.72804688 -0.18359375 2.58984375 C-0.12300781 1.73519531 -0.06242188 0.88054687 0 0 Z " fill="#A25E3F" transform="translate(137,109)"/>
<path d="M0 0 C1.66611905 -0.042721 3.33382885 -0.04063832 5 0 C6 1 6 1 6.1875 4.75 C6.15615249 8.23584286 5.57760458 10.84479083 4 14 C2.35 14 0.7 14 -1 14 C-2.60279613 11.38491158 -3.15622322 9.68190867 -2.46484375 6.6640625 C-1.70194637 4.41440232 -0.89207691 2.20141561 0 0 Z " fill="#E49A5D" transform="translate(52,137)"/>
<path d="M0 0 C0.33 0 0.66 0 1 0 C1.33 2.31 1.66 4.62 2 7 C4.31 7.66 6.62 8.32 9 9 C9 9.33 9 9.66 9 10 C7.35 10 5.7 10 4 10 C4.33 13.3 4.66 16.6 5 20 C4.34 20 3.68 20 3 20 C2.34 19.01 1.68 18.02 1 17 C-1.05925139 16.27617533 -1.05925139 16.27617533 -3 16 C-4.43484866 9.30403958 -3.59058175 5.79424351 0 0 Z " fill="#A25E3F" transform="translate(55,120)"/>
<path d="M0 0 C1.19109375 0.00773438 1.19109375 0.00773438 2.40625 0.015625 C3.2003125 0.01046875 3.994375 0.0053125 4.8125 0 C6.90625 0.265625 6.90625 0.265625 8.90625 2.265625 C8.53943342 5.20015761 8.04187754 6.12999746 5.90625 8.265625 C4.03125 8.49609375 4.03125 8.49609375 1.90625 8.453125 C1.205 8.44667969 0.50375 8.44023437 -0.21875 8.43359375 C-2.09375 8.265625 -2.09375 8.265625 -4.09375 7.265625 C-4.21875 4.890625 -4.21875 4.890625 -4.09375 2.265625 C-2.09375 0.265625 -2.09375 0.265625 0 0 Z " fill="#955435" transform="translate(96.09375,132.734375)"/>
<path d="M0 0 C2.499964 2.499964 3.67507024 4.71922154 5 8 C4.6875 11.375 4.6875 11.375 4 14 C3.01 14 2.02 14 1 14 C-1.01696222 10.97455666 -1.25811096 10.38932618 -1.1875 7 C-1.18105469 6.319375 -1.17460937 5.63875 -1.16796875 4.9375 C-1 3 -1 3 0 0 Z " fill="#DD955B" transform="translate(144,129)"/>
<path d="M0 0 C5.94 0.66 11.88 1.32 18 2 C18 4.97 18 7.94 18 11 C17.67 11 17.34 11 17 11 C17 8.36 17 5.72 17 3 C16.34 3 15.68 3 15 3 C15 4.65 15 6.3 15 8 C13.68 7.67 12.36 7.34 11 7 C11.99 7 12.98 7 14 7 C14 5.68 14 4.36 14 3 C9.38 3 4.76 3 0 3 C0 2.01 0 1.02 0 0 Z " fill="#8B614E" transform="translate(110,109)"/>
<path d="M0 0 C0.66 0.99 1.32 1.98 2 3 C2.99 3.66 3.98 4.32 5 5 C3.329375 5.4021875 3.329375 5.4021875 1.625 5.8125 C-2.21840951 6.65809019 -2.21840951 6.65809019 -4 10 C-4.16713569 12.62531524 -4.16713569 12.62531524 -4 15 C-4.99 14.67 -5.98 14.34 -7 14 C-7.31838702 10.79907334 -7.1952605 9.31331341 -5.46875 6.54296875 C-4.49421875 5.37701172 -4.49421875 5.37701172 -3.5 4.1875 C-2.8503125 3.39730469 -2.200625 2.60710937 -1.53125 1.79296875 C-1.0259375 1.20128906 -0.520625 0.60960937 0 0 Z " fill="#4F5155" transform="translate(49,147)"/>
<path d="M0 0 C0.33 3.63 0.66 7.26 1 11 C-1.96404505 8.19195732 -4.44499019 5.81684226 -6 2 C-3 0 -3 0 0 0 Z " fill="#A17055" transform="translate(71,204)"/>
<path d="M0 0 C1.98 0.66 3.96 1.32 6 2 C2.25 7.875 2.25 7.875 0 9 C0 6.03 0 3.06 0 0 Z " fill="#A97155" transform="translate(128,204)"/>
<path d="M0 0 C1.670625 0.061875 1.670625 0.061875 3.375 0.125 C2.055 2.435 0.735 4.745 -0.625 7.125 C-2.275 5.475 -3.925 3.825 -5.625 2.125 C-3.625 0.125 -3.625 0.125 0 0 Z " fill="#534D4B" transform="translate(73.625,123.875)"/>
<path d="M0 0 C1.32 0.33 2.64 0.66 4 1 C2.87548273 3.9719385 1.77706209 6.33440687 0 9 C-0.99 8.67 -1.98 8.34 -3 8 C-3 7.34 -3 6.68 -3 6 C-2.34 5.67 -1.68 5.34 -1 5 C-0.34444881 2.47266765 -0.34444881 2.47266765 0 0 Z " fill="#349762" transform="translate(136,198)"/>
<path d="M0 0 C-3.0131306 2.21553721 -4.45160985 3.03163789 -8.25 2.8125 C-9.1575 2.544375 -10.065 2.27625 -11 2 C-11.33 1.34 -11.66 0.68 -12 0 C-10.56359829 -0.19573608 -9.12580496 -0.38127816 -7.6875 -0.5625 C-6.88699219 -0.66691406 -6.08648437 -0.77132812 -5.26171875 -0.87890625 C-3 -1 -3 -1 0 0 Z " fill="#8B5840" transform="translate(108,166)"/>
<path d="M0 0 C0.66 0 1.32 0 2 0 C3.125 5.75 3.125 5.75 2 8 C1.01 8 0.02 8 -1 8 C-0.67 5.36 -0.34 2.72 0 0 Z " fill="#CB9163" transform="translate(146,135)"/>
<path d="M0 0 C2.31 0 4.62 0 7 0 C6.01 1.98 5.02 3.96 4 6 C2.62437146 4.71034824 1.29233607 3.37310707 0 2 C0 1.34 0 0.68 0 0 Z " fill="#484545" transform="translate(119,120)"/>
<path d="M0 0 C-0.598125 0.28875 -1.19625 0.5775 -1.8125 0.875 C-4.19327792 2.04742026 -4.19327792 2.04742026 -7 4 C-10.1875 3.625 -10.1875 3.625 -13 3 C-12.67 2.34 -12.34 1.68 -12 1 C-7.96960118 0.06269795 -4.12580711 -0.0982335 0 0 Z " fill="#3A9164" transform="translate(133,159)"/>
<path d="M0 0 C2.12966005 2.12966005 2.47624662 3.04068204 3.1875 5.875 C3.36667969 6.55304688 3.54585937 7.23109375 3.73046875 7.9296875 C4.02970718 10.22818556 3.69377386 11.80550964 3 14 C0.96006486 9.07015675 -0.40652968 5.42039575 0 0 Z " fill="#52565A" transform="translate(141,93)"/>
<path d="M0 0 C0.66 0 1.32 0 2 0 C1.67 2.31 1.34 4.62 1 7 C0.01 7.33 -0.98 7.66 -2 8 C-1.125 2.25 -1.125 2.25 0 0 Z " fill="#45AC76" transform="translate(60,161)"/>
<path d="M0 0 C2 3.875 2 3.875 2 5 C-0.64 5 -3.28 5 -6 5 C-5.195625 4.360625 -4.39125 3.72125 -3.5625 3.0625 C-1.7249496 1.59396498 -1.7249496 1.59396498 0 0 Z " fill="#A8BAC7" transform="translate(69,245)"/>
<path d="M0 0 C2.31 1.98 4.62 3.96 7 6 C6.67 6.66 6.34 7.32 6 8 C2.24623848 6.74874616 1.75926711 5.4347596 0 2 C0 1.34 0 0.68 0 0 Z " fill="#399966" transform="translate(59,199)"/>
<path d="M0 0 C0.99 0.33 1.98 0.66 3 1 C-0.465 3.97 -0.465 3.97 -4 7 C-2.92598892 4.08482708 -2.22189824 2.22189824 0 0 Z " fill="#3F4347" transform="translate(48,152)"/>
</svg>
